<svg width="145" height="25" viewBox="0 0 145 25" fill="none" xmlns="http://www.w3.org/2000/svg">
<path d="M9.31995 11.8584L11.8799 14.4184L14.4399 11.8584" stroke="#23A8FA" stroke-width="1.5" stroke-miterlimit="10" stroke-linecap="round" stroke-linejoin="round"/>
<path d="M11.88 4.17871V14.3487" stroke="#23A8FA" stroke-width="1.5" stroke-miterlimit="10" stroke-linecap="round" stroke-linejoin="round"/>
<path d="M20 12.3584C20 16.7784 17 20.3584 12 20.3584C7 20.3584 4 16.7784 4 12.3584" stroke="#23A8FA" stroke-width="1.5" stroke-miterlimit="10" stroke-linecap="round" stroke-linejoin="round"/>
<path d="M42.4328 10.2487C42.1808 9.76338 41.8308 9.39938 41.3828 9.15671C40.9348 8.90471 40.4168 8.77871 39.8288 8.77871C39.1848 8.77871 38.6108 8.92338 38.1068 9.21271C37.6028 9.50204 37.2062 9.91271 36.9168 10.4447C36.6368 10.9767 36.4968 11.5927 36.4968 12.2927C36.4968 12.9927 36.6368 13.6134 36.9168 14.1547C37.2062 14.6867 37.6028 15.0974 38.1068 15.3867C38.6108 15.676 39.1848 15.8207 39.8288 15.8207C40.6968 15.8207 41.4015 15.578 41.9428 15.0927C42.4842 14.6074 42.8155 13.9494 42.9368 13.1187H39.2828V11.8447H44.6448V13.0907C44.5422 13.8467 44.2715 14.542 43.8328 15.1767C43.4035 15.8114 42.8388 16.32 42.1388 16.7027C41.4482 17.076 40.6782 17.2627 39.8288 17.2627C38.9142 17.2627 38.0788 17.0527 37.3228 16.6327C36.5668 16.2034 35.9648 15.6107 35.5168 14.8547C35.0782 14.0987 34.8588 13.2447 34.8588 12.2927C34.8588 11.3407 35.0782 10.4867 35.5168 9.73071C35.9648 8.97471 36.5668 8.38671 37.3228 7.96671C38.0882 7.53738 38.9235 7.32271 39.8288 7.32271C40.8648 7.32271 41.7842 7.57938 42.5868 8.09271C43.3988 8.59671 43.9868 9.31538 44.3508 10.2487H42.4328ZM53.2889 13.1327C53.2889 13.422 53.2703 13.6834 53.2329 13.9167H47.3389C47.3856 14.5327 47.6143 15.0274 48.0249 15.4007C48.4356 15.774 48.9396 15.9607 49.5369 15.9607C50.3956 15.9607 51.0023 15.6014 51.3569 14.8827H53.0789C52.8456 15.592 52.4209 16.1754 51.8049 16.6327C51.1983 17.0807 50.4423 17.3047 49.5369 17.3047C48.7996 17.3047 48.1369 17.1414 47.5489 16.8147C46.9703 16.4787 46.5129 16.012 46.1769 15.4147C45.8503 14.808 45.6869 14.108 45.6869 13.3147C45.6869 12.5214 45.8456 11.826 46.1629 11.2287C46.4896 10.622 46.9423 10.1554 47.5209 9.82871C48.1089 9.50204 48.7809 9.33871 49.5369 9.33871C50.2649 9.33871 50.9136 9.49738 51.4829 9.81471C52.0523 10.132 52.4956 10.58 52.8129 11.1587C53.1303 11.728 53.2889 12.386 53.2889 13.1327ZM51.6229 12.6287C51.6136 12.0407 51.4036 11.5694 50.9929 11.2147C50.5823 10.86 50.0736 10.6827 49.4669 10.6827C48.9163 10.6827 48.4449 10.86 48.0529 11.2147C47.6609 11.56 47.4276 12.0314 47.3529 12.6287H51.6229ZM56.7216 10.7667V15.0367C56.7216 15.326 56.7869 15.536 56.9176 15.6667C57.0576 15.788 57.2909 15.8487 57.6176 15.8487H58.5976V17.1787H57.3376C56.6189 17.1787 56.0682 17.0107 55.6856 16.6747C55.3029 16.3387 55.1116 15.7927 55.1116 15.0367V10.7667H54.2016V9.46471H55.1116V7.54671H56.7216V9.46471H58.5976V10.7667H56.7216ZM70.5093 10.3467C70.5093 10.8414 70.3926 11.308 70.1593 11.7467C69.9259 12.1854 69.5526 12.5447 69.0393 12.8247C68.5259 13.0954 67.8679 13.2307 67.0653 13.2307H65.3013V17.1787H63.7053V7.44871H67.0653C67.8119 7.44871 68.4419 7.57938 68.9553 7.84071C69.4779 8.09271 69.8653 8.43804 70.1173 8.87671C70.3786 9.31538 70.5093 9.80538 70.5093 10.3467ZM67.0653 11.9287C67.6719 11.9287 68.1246 11.7934 68.4233 11.5227C68.7219 11.2427 68.8713 10.8507 68.8713 10.3467C68.8713 9.28271 68.2693 8.75071 67.0653 8.75071H65.3013V11.9287H67.0653ZM75.2094 7.44871C76.2454 7.44871 77.1508 7.64938 77.9254 8.05071C78.7094 8.44271 79.3114 9.01204 79.7314 9.75871C80.1608 10.496 80.3754 11.3594 80.3754 12.3487C80.3754 13.338 80.1608 14.1967 79.7314 14.9247C79.3114 15.6527 78.7094 16.2127 77.9254 16.6047C77.1508 16.9874 76.2454 17.1787 75.2094 17.1787H72.0314V7.44871H75.2094ZM75.2094 15.8767C76.3481 15.8767 77.2208 15.5687 77.8274 14.9527C78.4341 14.3367 78.7374 13.4687 78.7374 12.3487C78.7374 11.2194 78.4341 10.3374 77.8274 9.70271C77.2208 9.06804 76.3481 8.75071 75.2094 8.75071H73.6274V15.8767H75.2094ZM87.6832 7.44871V8.75071H83.5532V11.6207H86.7732V12.9227H83.5532V17.1787H81.9572V7.44871H87.6832ZM97.853 17.1787L95.613 13.2867H94.395V17.1787H92.799V7.44871H96.159C96.9057 7.44871 97.5357 7.57938 98.049 7.84071C98.5717 8.10204 98.959 8.45204 99.211 8.89071C99.4724 9.32938 99.603 9.81938 99.603 10.3607C99.603 10.9954 99.4164 11.574 99.043 12.0967C98.679 12.61 98.1144 12.96 97.349 13.1467L99.757 17.1787H97.853ZM94.395 12.0127H96.159C96.7564 12.0127 97.2044 11.8634 97.503 11.5647C97.811 11.266 97.965 10.8647 97.965 10.3607C97.965 9.85671 97.8157 9.46471 97.517 9.18471C97.2184 8.89538 96.7657 8.75071 96.159 8.75071H94.395V12.0127ZM108.715 13.1327C108.715 13.422 108.696 13.6834 108.659 13.9167H102.765C102.811 14.5327 103.04 15.0274 103.451 15.4007C103.861 15.774 104.365 15.9607 104.963 15.9607C105.821 15.9607 106.428 15.6014 106.783 14.8827H108.505C108.271 15.592 107.847 16.1754 107.231 16.6327C106.624 17.0807 105.868 17.3047 104.963 17.3047C104.225 17.3047 103.563 17.1414 102.975 16.8147C102.396 16.4787 101.939 16.012 101.603 15.4147C101.276 14.808 101.113 14.108 101.113 13.3147C101.113 12.5214 101.271 11.826 101.589 11.2287C101.915 10.622 102.368 10.1554 102.947 9.82871C103.535 9.50204 104.207 9.33871 104.963 9.33871C105.691 9.33871 106.339 9.49738 106.909 9.81471C107.478 10.132 107.921 10.58 108.239 11.1587C108.556 11.728 108.715 12.386 108.715 13.1327ZM107.049 12.6287C107.039 12.0407 106.829 11.5694 106.419 11.2147C106.008 10.86 105.499 10.6827 104.893 10.6827C104.342 10.6827 103.871 10.86 103.479 11.2147C103.087 11.56 102.853 12.0314 102.779 12.6287H107.049ZM109.753 13.3147C109.753 12.5214 109.912 11.826 110.229 11.2287C110.556 10.622 111.004 10.1554 111.573 9.82871C112.143 9.50204 112.796 9.33871 113.533 9.33871C114.467 9.33871 115.237 9.56271 115.843 10.0107C116.459 10.4494 116.875 11.0794 117.089 11.9007H115.367C115.227 11.518 115.003 11.2194 114.695 11.0047C114.387 10.79 114 10.6827 113.533 10.6827C112.88 10.6827 112.357 10.916 111.965 11.3827C111.583 11.84 111.391 12.484 111.391 13.3147C111.391 14.1454 111.583 14.794 111.965 15.2607C112.357 15.7274 112.88 15.9607 113.533 15.9607C114.457 15.9607 115.069 15.5547 115.367 14.7427H117.089C116.865 15.5267 116.445 16.152 115.829 16.6187C115.213 17.076 114.448 17.3047 113.533 17.3047C112.796 17.3047 112.143 17.1414 111.573 16.8147C111.004 16.4787 110.556 16.012 110.229 15.4147C109.912 14.808 109.753 14.108 109.753 13.3147ZM125.75 13.1327C125.75 13.422 125.731 13.6834 125.694 13.9167H119.8C119.847 14.5327 120.075 15.0274 120.486 15.4007C120.897 15.774 121.401 15.9607 121.998 15.9607C122.857 15.9607 123.463 15.6014 123.818 14.8827H125.54C125.307 15.592 124.882 16.1754 124.266 16.6327C123.659 17.0807 122.903 17.3047 121.998 17.3047C121.261 17.3047 120.598 17.1414 120.01 16.8147C119.431 16.4787 118.974 16.012 118.638 15.4147C118.311 14.808 118.148 14.108 118.148 13.3147C118.148 12.5214 118.307 11.826 118.624 11.2287C118.951 10.622 119.403 10.1554 119.982 9.82871C120.57 9.50204 121.242 9.33871 121.998 9.33871C122.726 9.33871 123.375 9.49738 123.944 9.81471C124.513 10.132 124.957 10.58 125.274 11.1587C125.591 11.728 125.75 12.386 125.75 13.1327ZM124.084 12.6287C124.075 12.0407 123.865 11.5694 123.454 11.2147C123.043 10.86 122.535 10.6827 121.928 10.6827C121.377 10.6827 120.906 10.86 120.514 11.2147C120.122 11.56 119.889 12.0314 119.814 12.6287H124.084ZM128.133 8.44271C127.843 8.44271 127.601 8.34471 127.405 8.14871C127.209 7.95271 127.111 7.71004 127.111 7.42071C127.111 7.13138 127.209 6.88871 127.405 6.69271C127.601 6.49671 127.843 6.39871 128.133 6.39871C128.413 6.39871 128.651 6.49671 128.847 6.69271C129.043 6.88871 129.141 7.13138 129.141 7.42071C129.141 7.71004 129.043 7.95271 128.847 8.14871C128.651 8.34471 128.413 8.44271 128.133 8.44271ZM128.917 9.46471V17.1787H127.321V9.46471H128.917ZM132.608 10.5987C132.879 10.244 133.247 9.94538 133.714 9.70271C134.181 9.46004 134.708 9.33871 135.296 9.33871C135.968 9.33871 136.579 9.50671 137.13 9.84271C137.69 10.1694 138.129 10.6314 138.446 11.2287C138.763 11.826 138.922 12.512 138.922 13.2867C138.922 14.0614 138.763 14.7567 138.446 15.3727C138.129 15.9794 137.69 16.4554 137.13 16.8007C136.579 17.1367 135.968 17.3047 135.296 17.3047C134.708 17.3047 134.185 17.188 133.728 16.9547C133.271 16.712 132.897 16.4134 132.608 16.0587V20.8467H131.012V9.46471H132.608V10.5987ZM137.298 13.2867C137.298 12.7547 137.186 12.2974 136.962 11.9147C136.747 11.5227 136.458 11.2287 136.094 11.0327C135.739 10.8274 135.357 10.7247 134.946 10.7247C134.545 10.7247 134.162 10.8274 133.798 11.0327C133.443 11.238 133.154 11.5367 132.93 11.9287C132.715 12.3207 132.608 12.7827 132.608 13.3147C132.608 13.8467 132.715 14.3134 132.93 14.7147C133.154 15.1067 133.443 15.4054 133.798 15.6107C134.162 15.816 134.545 15.9187 134.946 15.9187C135.357 15.9187 135.739 15.816 136.094 15.6107C136.458 15.396 136.747 15.088 136.962 14.6867C137.186 14.2854 137.298 13.8187 137.298 13.2867ZM142.362 10.7667V15.0367C142.362 15.326 142.428 15.536 142.558 15.6667C142.698 15.788 142.932 15.8487 143.258 15.8487H144.238V17.1787H142.978C142.26 17.1787 141.709 17.0107 141.326 16.6747C140.944 16.3387 140.752 15.7927 140.752 15.0367V10.7667H139.842V9.46471H140.752V7.54671H142.362V9.46471H144.238V10.7667H142.362Z" fill="#23A8FA"/>
</svg>
