<svg width="225" height="224" viewBox="0 0 225 224" fill="none" xmlns="http://www.w3.org/2000/svg">
<g opacity="0.2">
<path opacity="0.09" d="M66.4986 107.097C70.1588 105.076 74.2865 104.054 78.4669 104.133C80.1185 104.157 81.7628 104.356 83.372 104.729C85.0874 105.147 86.7375 105.798 88.277 106.663L192.552 166.89C196.139 168.992 198.01 172.243 197.793 175.81C197.719 176.797 197.506 177.769 197.162 178.697C196.251 181.241 193.659 183.96 190.737 185.648L132.17 219.444C131.349 219.914 130.499 220.333 129.627 220.698C126.684 221.895 123.54 222.518 120.363 222.534C116.968 222.63 113.607 221.833 110.616 220.222L5.92813 159.785C2.33343 157.682 0.476503 154.417 0.707742 150.843C0.775969 149.998 0.942958 149.163 1.20527 148.356C2.04614 145.658 4.70886 142.75 7.79204 140.991L66.4986 107.097Z" fill="black"/>
<path opacity="0.18" d="M66.7579 107.554C70.4007 105.548 74.5136 104.554 78.6701 104.674C80.3118 104.73 81.9424 104.965 83.5332 105.374C85.2176 105.851 86.8421 106.519 88.3751 107.364L192.257 167.346C195.831 169.406 197.513 172.672 197.071 176.147C196.928 177.094 196.667 178.019 196.293 178.901C195.411 181.172 192.439 184.052 189.798 185.572L132.072 218.906C131.261 219.366 130.426 219.782 129.571 220.153C126.681 221.352 123.589 221.987 120.461 222.024C117.115 222.145 113.797 221.374 110.847 219.788L6.19442 159.33C2.60672 157.263 0.946007 153.97 1.4225 150.487C1.55519 149.677 1.76642 148.881 2.05317 148.111C2.88703 145.708 5.99119 142.639 8.75904 141.041L66.7579 107.554Z" fill="black"/>
<path opacity="0.27" d="M67.0242 108.03C72.1188 105.189 78.124 104.46 83.7504 105.998C85.4108 106.519 87.0142 107.207 88.5363 108.051L192.026 167.801C195.579 169.847 197.071 173.099 196.406 176.49C196.19 177.391 195.882 178.266 195.488 179.104C194.633 181.094 191.283 184.142 188.915 185.494L132.03 218.337C131.435 218.681 130.229 219.311 129.571 219.585C126.737 220.786 123.7 221.436 120.622 221.498C117.327 221.634 114.054 220.889 111.142 219.339L6.45373 158.895C2.88005 156.835 1.41556 153.556 2.1373 150.15C2.33101 149.378 2.58882 148.623 2.90808 147.894C3.72092 145.792 7.25955 142.533 9.7261 141.111L67.0242 108.03Z" fill="black"/>
<path opacity="0.36" d="M67.2833 108.457C69.7935 107.051 72.5602 106.162 75.4199 105.843C78.2795 105.524 81.1741 105.781 83.9325 106.6C85.5669 107.169 87.1513 107.872 88.6694 108.702L191.767 168.222C195.27 170.268 196.609 173.498 195.712 176.799C195.428 177.654 195.072 178.484 194.647 179.279C193.841 180.996 190.05 184.184 187.997 185.389L131.939 217.742C131.42 218.043 130.096 218.744 129.528 218.989C126.746 220.195 123.759 220.857 120.727 220.937C117.479 221.093 114.249 220.367 111.38 218.835L6.71989 158.426C3.14621 156.366 1.87087 153.093 2.84488 149.772C3.10926 149.041 3.4134 148.325 3.75585 147.628C4.53365 145.813 8.53475 142.379 10.686 141.139L67.2833 108.457Z" fill="black"/>
<path opacity="0.45" d="M67.5498 108.913C70.0465 107.504 72.8075 106.627 75.6594 106.337C78.5112 106.046 81.3923 106.348 84.1219 107.224C85.7316 107.842 87.2977 108.567 88.8097 109.396L191.501 168.684C195.004 170.716 196.16 173.926 195.004 177.142C194.649 177.95 194.242 178.734 193.785 179.489C193.084 180.94 188.824 184.303 187.065 185.319L131.869 217.188C131.428 217.448 129.991 218.211 129.501 218.429C126.772 219.638 123.837 220.313 120.854 220.419C117.657 220.596 114.472 219.901 111.639 218.408L6.97931 157.97C3.41964 155.917 2.32651 152.659 3.55978 149.414C3.81905 148.714 4.26049 148.111 4.60385 147.389C5.30457 145.855 9.81022 142.253 11.6531 141.188L67.5498 108.913Z" fill="black"/>
<path opacity="0.55" d="M67.8089 109.368C71.4122 107.4 75.5085 106.519 79.6021 106.831C81.2047 106.993 82.7841 107.334 84.3109 107.847C85.8923 108.509 87.4383 109.253 88.9427 110.075L191.248 169.139C194.752 171.157 195.719 174.353 194.338 177.485C193.978 178.285 193.506 179.031 192.937 179.699C192.523 180.981 187.611 184.401 186.14 185.242L131.82 216.641C131.449 216.858 129.9 217.699 129.494 217.881C126.817 219.092 123.935 219.782 121.001 219.914C117.843 220.119 114.691 219.447 111.891 217.973L7.20344 157.535C3.65077 155.489 2.73284 152.238 4.23939 149.085C4.5537 148.398 4.95144 147.753 5.42362 147.165C5.80201 145.805 11.0294 142.14 12.585 141.25L67.8089 109.368Z" fill="black"/>
<path opacity="0.64" d="M68.0682 109.824C71.6638 107.868 75.7553 107.013 79.8334 107.364C81.4254 107.558 82.9908 107.929 84.5001 108.471C85.1448 108.682 88.5503 110.455 89.0829 110.763L190.982 169.624C194.486 171.635 195.277 174.809 193.638 177.85C193.234 178.616 192.727 179.324 192.131 179.952C191.795 180.982 186.427 184.542 185.257 185.215L131.75 216.109C131.456 216.278 129.795 217.196 129.466 217.343C126.843 218.557 124.013 219.259 121.127 219.41C118.032 219.627 114.938 218.985 112.186 217.553L7.50475 157.081C3.95909 155.041 3.20233 151.79 4.98217 148.728C5.35056 148.077 5.79511 147.473 6.3065 146.927C6.60781 145.834 12.3537 142.022 13.58 141.321L68.0682 109.824Z" fill="black"/>
<path opacity="0.73" d="M68.3345 110.272C71.9178 108.329 76.001 107.504 80.0576 107.904C81.6392 108.125 83.1907 108.525 84.6824 109.095C85.1659 109.256 88.8237 111.197 89.2161 111.443L190.716 170.044C194.219 172.048 194.85 175.215 192.944 178.158C192.483 178.879 191.927 179.534 191.29 180.106C191.038 180.877 185.222 184.584 184.339 185.089L131.666 215.493C131.442 215.626 129.669 216.614 129.431 216.726C126.857 217.938 124.078 218.651 121.239 218.828C118.196 219.067 115.147 218.448 112.438 217.041L7.75001 156.604C4.24639 154.565 3.61578 151.314 5.68291 148.343C6.10428 147.727 6.59312 147.161 7.14038 146.654C7.37162 145.841 13.6081 141.854 14.533 141.321L68.3345 110.272Z" fill="black"/>
<path opacity="0.82" d="M68.6007 110.727C72.1761 108.794 76.2559 107.997 80.2958 108.443C81.8672 108.691 83.4049 109.119 84.8785 109.718C85.2008 109.83 89.0829 111.974 89.3632 112.129L190.463 170.499C193.911 172.489 194.429 175.663 192.257 178.501C191.739 179.18 191.133 179.788 190.456 180.309C190.288 180.82 184.024 184.674 183.449 185.011L131.631 214.932C131.484 215.016 129.599 216.081 129.437 216.158C126.918 217.376 124.191 218.106 121.4 218.309C118.163 218.484 115.024 217.917 112.732 216.592L8.04429 156.155C4.54068 154.123 4.0712 150.864 6.42562 147.991C6.89842 147.408 7.43684 146.882 8.03026 146.422C8.17742 145.875 14.9184 141.727 15.535 141.377L68.6007 110.727Z" fill="black"/>
<path opacity="0.91" d="M68.8601 111.183C72.4227 109.26 76.4947 108.491 80.5132 108.983C82.0772 109.256 83.6036 109.712 85.0608 110.342C85.215 110.405 89.3563 112.738 89.4894 112.815L190.19 170.975C193.631 172.959 194.002 176.133 191.592 178.859C191.013 179.497 190.356 180.06 189.637 180.533C189.56 180.793 182.833 184.787 182.545 184.955L131.568 214.385C131.491 214.427 129.466 215.569 129.417 215.604C126.952 216.83 124.277 217.574 121.533 217.798C118.359 217.994 115.227 217.461 112.999 216.165L8.28967 155.679C4.78606 153.654 4.47075 150.374 7.11948 147.613C7.64447 147.066 8.22712 146.578 8.85726 146.156C8.93433 145.883 16.1728 141.58 16.4811 141.405L68.8601 111.183Z" fill="black"/>
<path d="M113.237 215.689L8.54877 155.245C4.4145 152.863 4.93305 148.693 9.70498 145.94L69.1192 111.604C73.8912 108.843 81.1156 108.549 85.2358 110.903L189.917 171.341C194.051 173.73 193.533 177.899 188.761 180.653L129.346 214.954C124.588 217.778 117.371 218.044 113.237 215.689Z" fill="black"/>
</g>
<path d="M113.237 215.592L8.54874 155.154C6.70584 154.089 5.78789 152.674 5.74585 151.181V145.996C5.74585 144.188 7.1473 147.327 9.69092 145.842L69.1192 111.534C73.8911 108.781 81.1156 108.479 85.2358 110.834L189.917 171.278C191.318 172.07 192.299 168.692 192.657 169.764C192.776 170.122 192.699 174.866 192.706 175.244C192.748 177.094 191.409 179.056 188.761 180.591L129.346 214.891C124.588 217.68 117.371 217.981 113.237 215.592Z" fill="#646464"/>
<path d="M113.237 210.505L8.54877 150.074C4.4145 147.692 4.93305 143.523 9.70498 140.769L69.1192 106.468C73.8912 103.708 81.1156 103.413 85.2358 105.768L189.931 166.191C194.065 168.58 193.547 172.75 188.775 175.504L129.36 209.804C124.588 212.593 117.371 212.887 113.237 210.505Z" fill="url(#paint0_linear_502_12061)"/>
<path d="M120.237 210.021C118.171 210.09 116.121 209.632 114.281 208.689L9.59294 148.252C8.94126 147.874 7.84814 147.089 7.84814 146.017C7.84814 144.945 8.93428 143.613 10.7562 142.562L70.1634 108.262C72.6439 106.923 75.424 106.235 78.2428 106.265C80.309 106.195 82.3589 106.653 84.1989 107.596L188.887 168.033C189.539 168.405 190.632 169.197 190.632 170.269C190.632 171.341 189.546 172.672 187.731 173.723L128.316 208.024C125.836 209.363 123.056 210.05 120.237 210.021Z" fill="url(#paint1_linear_502_12061)"/>
<path d="M188.775 174.669L129.36 208.97C124.588 211.723 117.371 212.025 113.244 209.635L8.54869 149.198C6.83192 148.21 5.93499 146.914 5.78784 145.533C5.57762 147.222 6.48856 148.869 8.54869 150.06L113.237 210.504C117.371 212.887 124.588 212.606 129.353 209.803L188.768 175.503C191.57 173.891 192.881 171.796 192.685 169.855C192.474 171.565 191.157 173.296 188.775 174.669Z" fill="white"/>
<path opacity="0.8" d="M188.642 163.893L85.6773 104.45C84.0106 103.487 82.7141 101.994 81.9942 100.208C81.2742 98.423 81.1721 96.4481 81.7042 94.5981L104.127 17.0071C104.488 15.7465 105.132 14.5849 106.01 13.6108C106.888 12.6367 107.976 11.8758 109.193 11.3859C110.409 10.896 111.721 10.69 113.029 10.7838C114.337 10.8775 115.606 11.2685 116.74 11.9268L219.704 71.3691C221.37 72.3334 222.666 73.8267 223.386 75.6117C224.106 77.3968 224.208 79.3712 223.678 81.2213L201.255 158.812C200.893 160.073 200.249 161.234 199.372 162.209C198.494 163.183 197.405 163.944 196.189 164.433C194.973 164.923 193.661 165.129 192.353 165.036C191.045 164.942 189.776 164.551 188.642 163.893Z" fill="url(#paint2_linear_502_12061)"/>
<path d="M187.198 163.892L84.2339 104.45C82.5681 103.485 81.2724 101.992 80.5525 100.207C79.8327 98.4219 79.73 96.4475 80.2608 94.5974L102.684 17.0064C103.046 15.7467 103.691 14.5861 104.569 13.6127C105.447 12.6394 106.535 11.879 107.751 11.3893C108.967 10.8996 110.278 10.6934 111.586 10.7864C112.894 10.8794 114.163 11.2692 115.297 11.9262L218.254 71.3685C219.922 72.33 221.221 73.8231 221.941 75.609C222.661 77.3949 222.762 79.3707 222.227 81.2206L199.804 158.812C199.443 160.071 198.799 161.232 197.922 162.205C197.044 163.178 195.957 163.939 194.741 164.429C193.526 164.919 192.215 165.125 190.908 165.032C189.601 164.939 188.332 164.549 187.198 163.892Z" fill="url(#paint3_linear_502_12061)"/>
<path opacity="0.2" d="M191.493 162.176C190.491 162.173 189.507 161.905 188.641 161.398L85.6772 101.955C84.5657 101.316 83.7007 100.322 83.2205 99.1334C82.7403 97.9444 82.6727 96.6287 83.0285 95.3967L105.452 17.8057C105.802 16.6096 106.53 15.5589 107.526 14.8101C108.522 14.0613 109.734 13.6545 110.98 13.6504C111.985 13.6495 112.971 13.9155 113.839 14.4212L216.803 73.8635C217.914 74.504 218.777 75.4981 219.256 76.687C219.735 77.8759 219.802 79.1911 219.445 80.4223L197.022 158.013C196.674 159.211 195.947 160.264 194.95 161.014C193.954 161.765 192.741 162.172 191.493 162.176Z" fill="url(#paint4_linear_502_12061)"/>
<path opacity="0.27" d="M191.388 161.987C190.388 161.988 189.406 161.722 188.544 161.216L85.9507 101.984C84.8358 101.347 83.9689 100.351 83.4906 99.1595C83.0124 97.9677 82.9508 96.6492 83.3159 95.418L105.676 18.0583C106.024 16.8659 106.749 15.8182 107.741 15.0718C108.734 14.3253 109.942 13.9202 111.184 13.917C112.184 13.9156 113.166 14.1817 114.029 14.6878L216.621 73.9129C217.728 74.5516 218.588 75.5425 219.066 76.7275C219.544 77.9124 219.61 79.2232 219.256 80.4506L196.896 157.81C196.554 159.009 195.833 160.065 194.839 160.818C193.846 161.571 192.635 161.981 191.388 161.987Z" fill="url(#paint5_linear_502_12061)"/>
<path opacity="0.35" d="M191.276 161.77C190.291 161.766 189.324 161.502 188.473 161.006L86.252 101.991C85.1476 101.356 84.2885 100.368 83.812 99.1866C83.3356 98.005 83.2695 96.6977 83.6243 95.4741L105.893 18.3386C106.132 17.5067 106.557 16.74 107.136 16.0969C107.715 15.4537 108.433 14.951 109.235 14.6268C110.038 14.3026 110.903 14.1654 111.767 14.2258C112.63 14.2861 113.468 14.5424 114.218 14.9751L216.453 74.011C217.558 74.6441 218.418 75.6302 218.894 76.8109C219.371 77.9915 219.437 79.2982 219.081 80.5207L196.791 157.649C196.441 158.84 195.714 159.885 194.72 160.628C193.726 161.371 192.517 161.771 191.276 161.77Z" fill="url(#paint6_linear_502_12061)"/>
<path opacity="0.42" d="M191.171 161.572C190.186 161.568 189.219 161.305 188.368 160.809L86.4972 102.004C85.3964 101.373 84.5396 100.39 84.0644 99.213C83.5891 98.0363 83.5229 96.734 83.8765 95.5153L106.103 18.625C106.45 17.4407 107.17 16.4001 108.156 15.6588C109.143 14.9174 110.342 14.5151 111.576 14.5117C112.561 14.5156 113.528 14.779 114.379 15.2755L216.229 74.0802C217.329 74.7117 218.186 75.695 218.66 76.8718C219.134 78.0487 219.198 79.3509 218.843 80.5688L196.616 157.459C196.273 158.64 195.557 159.678 194.576 160.42C193.595 161.161 192.401 161.565 191.171 161.572Z" fill="url(#paint7_linear_502_12061)"/>
<path opacity="0.49" d="M191.059 161.369C190.073 161.368 189.106 161.105 188.256 160.605L86.7774 102.018C85.6823 101.388 84.8301 100.409 84.3575 99.2381C83.8849 98.0666 83.8191 96.7705 84.1707 95.5572L106.335 18.8982C106.684 17.7275 107.4 16.7003 108.378 15.9684C109.356 15.2365 110.544 14.8387 111.765 14.834C112.75 14.8379 113.717 15.1013 114.568 15.5978L216.047 74.1852C217.141 74.8155 217.993 75.7941 218.467 76.965C218.941 78.1359 219.009 79.4318 218.66 80.6459L196.497 157.312C196.146 158.482 195.428 159.509 194.449 160.24C193.469 160.97 192.281 161.366 191.059 161.369Z" fill="url(#paint8_linear_502_12061)"/>
<path opacity="0.56" d="M190.954 161.174C189.969 161.17 189.002 160.906 188.151 160.41L87.0437 102.04C85.9498 101.415 85.0983 100.439 84.6266 99.2708C84.1549 98.1025 84.0906 96.8093 84.444 95.5999L106.538 19.1721C106.882 17.997 107.597 16.9645 108.575 16.2284C109.554 15.4922 110.744 15.0919 111.968 15.0869C112.954 15.0908 113.92 15.3542 114.771 15.8507L215.879 74.2209C216.973 74.846 217.824 75.8213 218.296 76.9897C218.767 78.158 218.832 79.4512 218.478 80.6605L196.384 157.081C196.041 158.258 195.327 159.292 194.349 160.029C193.37 160.767 192.179 161.168 190.954 161.174Z" fill="url(#paint9_linear_502_12061)"/>
<path opacity="0.64" d="M190.842 160.97C189.857 160.972 188.889 160.711 188.039 160.213L87.3031 102.053C86.216 101.427 85.3704 100.454 84.9017 99.2907C84.4329 98.127 84.368 96.8397 84.7174 95.6348L106.741 19.4452C107.083 18.2738 107.794 17.2443 108.769 16.5106C109.744 15.7768 110.93 15.3781 112.151 15.374C113.136 15.3738 114.103 15.6349 114.954 16.1308L215.689 74.2908C216.778 74.916 217.625 75.8883 218.095 77.0521C218.565 78.2159 218.631 79.5037 218.282 80.7094L196.251 156.906C195.908 158.076 195.196 159.104 194.222 159.836C193.247 160.569 192.061 160.967 190.842 160.97Z" fill="url(#paint10_linear_502_12061)"/>
<path opacity="0.71" d="M190.737 160.773C189.752 160.774 188.784 160.513 187.934 160.017L87.5692 102.067C86.4892 101.441 85.649 100.472 85.1819 99.3145C84.7148 98.1569 84.6474 96.8764 84.9905 95.6762L106.965 19.7388C107.301 18.5694 108.009 17.541 108.981 16.8091C109.953 16.0772 111.137 15.6815 112.354 15.6817C113.339 15.679 114.307 15.9404 115.157 16.4384L215.507 74.3952C216.587 75.0212 217.427 75.9898 217.894 77.1475C218.362 78.3051 218.429 79.5855 218.086 80.7858L196.132 156.716C195.796 157.887 195.087 158.916 194.114 159.648C193.14 160.38 191.955 160.775 190.737 160.773Z" fill="url(#paint11_linear_502_12061)"/>
<path opacity="0.78" d="M190.625 160.585C189.64 160.589 188.672 160.331 187.822 159.835L87.8286 102.103C86.7541 101.477 85.9184 100.511 85.4528 99.358C84.9873 98.2049 84.9184 96.9297 85.2569 95.7332L107.147 20.0061C107.485 18.8415 108.192 17.8179 109.161 17.089C110.13 16.36 111.309 15.9649 112.522 15.9629C113.507 15.961 114.475 16.2222 115.325 16.7197L215.318 74.4522C216.392 75.0783 217.228 76.0439 217.694 77.197C218.159 78.3501 218.228 79.6252 217.89 80.8218L195.999 156.549C195.66 157.712 194.953 158.734 193.984 159.462C193.015 160.189 191.836 160.584 190.625 160.585Z" fill="url(#paint12_linear_502_12061)"/>
<path opacity="0.85" d="M190.527 160.368C189.543 160.374 188.575 160.117 187.724 159.625L88.1019 102.103C87.0261 101.484 86.1888 100.522 85.7238 99.3712C85.2589 98.2204 85.1932 96.9469 85.5372 95.7543L107.365 20.2655C107.598 19.4549 108.012 18.708 108.577 18.0814C109.141 17.4549 109.841 16.965 110.623 16.649C111.405 16.333 112.249 16.1991 113.09 16.2575C113.931 16.3159 114.748 16.565 115.479 16.9861L215.108 74.5084C216.183 75.1275 217.02 76.0897 217.484 77.2407C217.947 78.3918 218.011 79.6652 217.665 80.8569L195.866 156.381C195.52 157.529 194.814 158.536 193.853 159.254C192.892 159.972 191.726 160.362 190.527 160.368Z" fill="url(#paint13_linear_502_12061)"/>
<path opacity="0.93" d="M190.407 160.171C189.439 160.17 188.488 159.912 187.653 159.421L88.3961 102.116C87.3292 101.5 86.4992 100.544 86.0383 99.4009C85.5774 98.2581 85.5119 96.994 85.8525 95.8097L107.61 20.5521C107.945 19.398 108.645 18.3835 109.605 17.6609C110.565 16.9382 111.734 16.5463 112.935 16.5439C113.903 16.5434 114.853 16.7997 115.689 17.2867L214.947 74.5918C216.015 75.2074 216.846 76.1627 217.308 77.3056C217.771 78.4485 217.837 79.7132 217.497 80.8983L195.775 156.163C195.431 157.32 194.723 158.335 193.756 159.057C192.789 159.779 191.614 160.17 190.407 160.171Z" fill="url(#paint14_linear_502_12061)"/>
<path d="M190.302 159.968C189.337 159.971 188.388 159.714 187.555 159.225L88.6695 102.138C87.6012 101.523 86.7704 100.567 86.3104 99.423C85.8504 98.2794 85.7879 97.0144 86.1329 95.831L107.855 20.8047C108.191 19.6549 108.89 18.6446 109.847 17.9247C110.804 17.2048 111.969 16.814 113.167 16.8105C114.13 16.8102 115.076 17.0666 115.907 17.5533L214.793 74.6412C215.861 75.256 216.693 76.2116 217.154 77.355C217.615 78.4984 217.679 79.7635 217.336 80.9477L195.614 155.974C195.277 157.123 194.578 158.133 193.621 158.853C192.664 159.572 191.5 159.964 190.302 159.968Z" fill="url(#paint15_linear_502_12061)"/>
<path d="M218.247 71.3688L115.29 11.9265C113.505 10.8939 111.408 10.5382 109.383 10.9245C111.2 10.7209 113.035 11.1065 114.617 12.0246L217.574 71.4669C219.243 72.4285 220.541 73.9215 221.261 75.7074C221.981 77.4933 222.082 79.4691 221.548 81.3191L199.124 158.91C198.685 160.445 197.827 161.827 196.646 162.901C195.466 163.976 194.009 164.7 192.439 164.992C194.141 164.81 195.75 164.125 197.06 163.024C198.371 161.923 199.324 160.457 199.797 158.812L222.22 81.221C222.755 79.371 222.654 77.3952 221.934 75.6093C221.214 73.8234 219.916 72.3304 218.247 71.3688Z" fill="#CFCFCF"/>
<path d="M131.841 188.243L46.8292 139.157C45.1265 138.176 45.3437 136.459 47.3057 135.324L79.2236 116.902C81.1857 115.767 84.1638 115.641 85.8595 116.622L170.871 165.672C172.574 166.66 172.357 168.377 170.395 169.512L138.477 187.934C136.515 189.097 133.537 189.224 131.841 188.243Z" fill="url(#paint16_linear_502_12061)"/>
<path style="mix-blend-mode:screen" opacity="0.3" d="M81.0807 120.482L86.5323 123.628C86.9208 123.822 87.349 123.923 87.7831 123.923C88.2172 123.923 88.6454 123.822 89.0339 123.628C89.1839 123.576 89.3141 123.479 89.4062 123.35C89.4983 123.22 89.5477 123.065 89.5477 122.907C89.5477 122.748 89.4983 122.593 89.4062 122.464C89.3141 122.334 89.1839 122.237 89.0339 122.185L83.5823 119.039C83.1938 118.845 82.7656 118.744 82.3314 118.744C81.8973 118.744 81.4692 118.845 81.0807 119.039C80.9306 119.091 80.8005 119.188 80.7084 119.317C80.6163 119.447 80.5668 119.602 80.5668 119.76C80.5668 119.919 80.6163 120.074 80.7084 120.203C80.8005 120.333 80.9306 120.43 81.0807 120.482ZM90.4073 125.871L92.993 127.356C93.3805 127.553 93.809 127.656 94.2437 127.656C94.6784 127.656 95.107 127.553 95.4945 127.356C96.1953 126.957 96.1953 126.312 95.4945 125.913L92.9158 124.42C92.5283 124.223 92.0998 124.121 91.6651 124.121C91.2304 124.121 90.8018 124.223 90.4143 124.42C90.2615 124.47 90.1282 124.566 90.0335 124.696C89.9387 124.826 89.8873 124.982 89.8865 125.143C89.8858 125.304 89.9356 125.46 90.0291 125.591C90.1226 125.722 90.255 125.82 90.4073 125.871ZM96.8679 129.599L99.4536 131.091C99.8399 131.288 100.267 131.391 100.701 131.391C101.135 131.391 101.562 131.288 101.948 131.091C102.649 130.699 102.649 130.047 101.948 129.648L99.3696 128.162C98.982 127.965 98.5534 127.863 98.1187 127.863C97.684 127.863 97.2555 127.965 96.8679 128.162C96.7203 128.216 96.5927 128.313 96.5025 128.442C96.4123 128.57 96.3639 128.723 96.3639 128.88C96.3639 129.037 96.4123 129.191 96.5025 129.319C96.5927 129.448 96.7203 129.545 96.8679 129.599ZM103.329 133.326L105.907 134.819C106.296 135.013 106.724 135.114 107.158 135.114C107.592 135.114 108.02 135.013 108.409 134.819C109.11 134.42 109.11 133.775 108.409 133.368L105.83 131.883C105.443 131.686 105.014 131.583 104.579 131.583C104.145 131.583 103.716 131.686 103.329 131.883C103.179 131.935 103.048 132.032 102.956 132.162C102.864 132.291 102.815 132.446 102.815 132.605C102.815 132.763 102.864 132.918 102.956 133.048C103.048 133.177 103.179 133.274 103.329 133.326ZM109.789 137.061L112.368 138.547C112.756 138.741 113.185 138.841 113.619 138.841C114.053 138.841 114.481 138.741 114.87 138.547C115.02 138.495 115.15 138.397 115.242 138.268C115.334 138.139 115.383 137.984 115.383 137.825C115.383 137.666 115.334 137.511 115.242 137.382C115.15 137.253 115.02 137.155 114.87 137.103L112.291 135.611C111.902 135.417 111.474 135.316 111.04 135.316C110.606 135.316 110.178 135.417 109.789 135.611C109.637 135.661 109.504 135.758 109.41 135.889C109.316 136.019 109.265 136.175 109.265 136.336C109.265 136.497 109.316 136.653 109.41 136.783C109.504 136.914 109.637 137.011 109.789 137.061ZM116.25 140.789L118.829 142.275C119.216 142.472 119.645 142.574 120.079 142.574C120.514 142.574 120.943 142.472 121.33 142.275C121.48 142.223 121.61 142.125 121.702 141.996C121.795 141.867 121.844 141.712 121.844 141.553C121.844 141.394 121.795 141.239 121.702 141.11C121.61 140.981 121.48 140.883 121.33 140.831L118.751 139.339C118.364 139.142 117.935 139.039 117.501 139.039C117.066 139.039 116.637 139.142 116.25 139.339C116.097 139.389 115.965 139.486 115.87 139.616C115.776 139.747 115.726 139.903 115.726 140.064C115.726 140.225 115.776 140.381 115.87 140.511C115.965 140.642 116.097 140.739 116.25 140.789ZM122.711 144.517L125.289 146.01C125.677 146.206 126.105 146.309 126.54 146.309C126.975 146.309 127.403 146.206 127.791 146.01C127.941 145.958 128.071 145.86 128.163 145.731C128.255 145.601 128.305 145.447 128.305 145.288C128.305 145.129 128.255 144.974 128.163 144.845C128.071 144.715 127.941 144.618 127.791 144.566L125.212 143.081C124.825 142.884 124.396 142.781 123.961 142.781C123.527 142.781 123.098 142.884 122.711 143.081C122.01 143.473 122.017 144.118 122.711 144.517ZM129.171 148.245L131.75 149.737C132.138 149.931 132.567 150.032 133.001 150.032C133.435 150.032 133.863 149.931 134.251 149.737C134.404 149.687 134.537 149.59 134.631 149.46C134.725 149.329 134.776 149.173 134.776 149.012C134.776 148.851 134.725 148.695 134.631 148.565C134.537 148.434 134.404 148.337 134.251 148.287L131.666 146.801C131.28 146.604 130.852 146.502 130.419 146.502C129.985 146.502 129.558 146.604 129.171 146.801C128.471 147.201 128.478 147.845 129.171 148.245ZM135.632 151.98L138.211 153.465C138.599 153.659 139.027 153.76 139.461 153.76C139.895 153.76 140.324 153.659 140.712 153.465C140.862 153.413 140.992 153.316 141.084 153.186C141.177 153.057 141.226 152.902 141.226 152.743C141.226 152.585 141.177 152.43 141.084 152.3C140.992 152.171 140.862 152.074 140.712 152.022L138.126 150.529C137.738 150.335 137.31 150.235 136.876 150.235C136.442 150.235 136.013 150.335 135.625 150.529C134.931 150.929 134.938 151.573 135.632 151.98ZM142.086 155.708L144.671 157.193C145.059 157.39 145.487 157.493 145.922 157.493C146.357 157.493 146.785 157.39 147.173 157.193C147.874 156.794 147.874 156.149 147.173 155.75L144.594 154.257C144.207 154.06 143.778 153.957 143.343 153.957C142.909 153.957 142.48 154.06 142.093 154.257C141.949 154.312 141.826 154.41 141.739 154.536C141.652 154.662 141.604 154.812 141.604 154.966C141.603 155.119 141.649 155.27 141.735 155.397C141.82 155.524 141.943 155.623 142.086 155.679V155.708ZM148.546 159.435L151.132 160.928C151.519 161.125 151.948 161.227 152.383 161.227C152.817 161.227 153.246 161.125 153.633 160.928C154.334 160.535 154.334 159.884 153.633 159.484L151.055 157.999C150.667 157.802 150.239 157.699 149.804 157.699C149.369 157.699 148.941 157.802 148.553 157.999C148.405 158.052 148.277 158.149 148.186 158.277C148.096 158.405 148.047 158.558 148.046 158.715C148.045 158.872 148.093 159.025 148.182 159.154C148.272 159.283 148.399 159.381 148.546 159.435ZM155.007 163.163L157.586 164.656C157.974 164.849 158.402 164.95 158.836 164.95C159.27 164.95 159.699 164.849 160.087 164.656C160.788 164.256 160.788 163.612 160.087 163.205L157.508 161.72C157.121 161.523 156.692 161.42 156.258 161.42C155.823 161.42 155.394 161.523 155.007 161.72C154.857 161.772 154.727 161.869 154.635 161.998C154.543 162.128 154.493 162.283 154.493 162.441C154.493 162.6 154.543 162.755 154.635 162.884C154.727 163.014 154.857 163.111 155.007 163.163ZM161.601 166.975L164.186 168.461C164.573 168.658 165 168.76 165.434 168.76C165.867 168.76 166.295 168.658 166.681 168.461C167.382 168.061 167.382 167.417 166.681 167.017L164.102 165.525C163.715 165.328 163.286 165.225 162.852 165.225C162.417 165.225 161.988 165.328 161.601 165.525C161.448 165.575 161.315 165.672 161.221 165.802C161.127 165.933 161.077 166.089 161.077 166.25C161.077 166.411 161.127 166.567 161.221 166.697C161.315 166.828 161.448 166.925 161.601 166.975ZM75.2717 124.042L77.507 125.331C77.9475 125.556 78.435 125.673 78.9294 125.673C79.4239 125.673 79.9114 125.556 80.3519 125.331L82.5732 124.049C83.358 123.6 83.351 122.865 82.5732 122.409L80.3379 121.12C79.8969 120.897 79.4096 120.781 78.9154 120.781C78.4212 120.781 77.934 120.897 77.493 121.12L75.2717 122.402C75.1018 122.462 74.9547 122.573 74.8506 122.72C74.7465 122.866 74.6906 123.042 74.6906 123.222C74.6906 123.402 74.7465 123.578 74.8506 123.724C74.9547 123.871 75.1018 123.982 75.2717 124.042ZM86.8196 129.052L89.0409 127.77C89.2132 127.712 89.363 127.601 89.469 127.453C89.5751 127.305 89.6321 127.128 89.6321 126.946C89.6321 126.765 89.5751 126.587 89.469 126.44C89.363 126.292 89.2132 126.181 89.0409 126.123L86.8196 124.848C86.3786 124.625 85.8913 124.509 85.3971 124.509C84.9029 124.509 84.4157 124.625 83.9747 124.848L81.7534 126.13C81.5811 126.188 81.4313 126.299 81.3252 126.447C81.2191 126.594 81.1621 126.772 81.1621 126.953C81.1621 127.135 81.2191 127.312 81.3252 127.46C81.4313 127.608 81.5811 127.719 81.7534 127.777L83.9887 129.066C84.429 129.285 84.9143 129.397 85.4058 129.395C85.8973 129.392 86.3815 129.275 86.8196 129.052ZM88.221 131.484L90.4563 132.773C90.8973 132.996 91.3846 133.112 91.8788 133.112C92.373 133.112 92.8602 132.996 93.3013 132.773L95.5226 131.491C96.3074 131.035 96.3004 130.299 95.5226 129.844L93.2943 128.555C92.8537 128.33 92.3662 128.213 91.8718 128.213C91.3773 128.213 90.8899 128.33 90.4494 128.555L88.2281 129.837C87.4012 130.306 87.4012 131.042 88.221 131.498V131.484ZM94.6817 135.211L96.917 136.501C97.3576 136.725 97.845 136.842 98.3394 136.842C98.8339 136.842 99.3214 136.725 99.7619 136.501L101.983 135.218C102.761 134.77 102.761 134.034 101.983 133.579L99.7549 132.289C99.3131 132.065 98.8246 131.948 98.329 131.948C97.8334 131.948 97.3448 132.065 96.903 132.289L94.6887 133.572C93.8618 134.034 93.8619 134.77 94.6537 135.225L94.6817 135.211ZM108.43 137.314L106.195 136.024C105.754 135.801 105.266 135.685 104.772 135.685C104.278 135.685 103.791 135.801 103.35 136.024L101.128 137.307C100.956 137.365 100.806 137.475 100.7 137.623C100.594 137.771 100.537 137.948 100.537 138.13C100.537 138.312 100.594 138.489 100.7 138.637C100.806 138.784 100.956 138.895 101.128 138.953L103.364 140.243C103.804 140.467 104.292 140.584 104.786 140.584C105.281 140.584 105.768 140.467 106.209 140.243L108.43 138.96C109.194 138.519 109.194 137.783 108.402 137.328L108.43 137.314ZM114.891 141.041L112.655 139.752C112.214 139.529 111.727 139.413 111.233 139.413C110.739 139.413 110.251 139.529 109.81 139.752L107.589 141.034C107.417 141.092 107.267 141.203 107.161 141.351C107.055 141.499 106.998 141.676 106.998 141.858C106.998 142.04 107.055 142.217 107.161 142.365C107.267 142.512 107.417 142.623 107.589 142.681L109.817 143.97C110.26 144.193 110.748 144.31 111.243 144.31C111.739 144.31 112.227 144.193 112.669 143.97L114.884 142.688C115.05 142.624 115.192 142.509 115.291 142.361C115.39 142.213 115.442 142.038 115.438 141.859C115.434 141.681 115.375 141.508 115.27 141.365C115.164 141.221 115.017 141.113 114.848 141.055L114.891 141.041ZM121.351 144.769L119.116 143.48C118.675 143.255 118.188 143.138 117.693 143.138C117.199 143.138 116.712 143.255 116.271 143.48L114.05 144.762C113.265 145.211 113.272 145.946 114.05 146.402L116.278 147.691C116.719 147.914 117.206 148.03 117.7 148.03C118.195 148.03 118.682 147.914 119.123 147.691L121.344 146.409C121.509 146.344 121.649 146.231 121.748 146.085C121.846 145.938 121.898 145.765 121.896 145.589C121.893 145.412 121.837 145.241 121.735 145.097C121.633 144.953 121.489 144.843 121.323 144.783L121.351 144.769ZM127.812 148.504L125.577 147.215C125.136 146.99 124.649 146.873 124.154 146.873C123.66 146.873 123.172 146.99 122.732 147.215L120.51 148.497C119.725 148.946 119.732 149.681 120.51 150.137L122.746 151.426C123.186 151.651 123.674 151.768 124.168 151.768C124.663 151.768 125.15 151.651 125.591 151.426L127.812 150.144C128.576 149.709 128.569 148.974 127.784 148.518L127.812 148.504ZM134.273 152.232L132.037 150.943C131.596 150.72 131.109 150.604 130.615 150.604C130.121 150.604 129.633 150.72 129.192 150.943L126.971 152.225C126.799 152.283 126.649 152.394 126.543 152.541C126.437 152.689 126.38 152.866 126.38 153.048C126.38 153.23 126.437 153.407 126.543 153.555C126.649 153.703 126.799 153.814 126.971 153.872L129.206 155.161C129.647 155.386 130.134 155.503 130.629 155.503C131.123 155.503 131.611 155.386 132.051 155.161L134.273 153.879C135.036 153.437 135.029 152.701 134.245 152.246L134.273 152.232ZM140.733 155.96L138.498 154.67C138.057 154.448 137.57 154.331 137.075 154.331C136.581 154.331 136.094 154.448 135.653 154.67L133.432 155.953C133.259 156.011 133.11 156.122 133.004 156.269C132.897 156.417 132.84 156.594 132.84 156.776C132.84 156.958 132.897 157.135 133.004 157.283C133.11 157.431 133.259 157.541 133.432 157.599L135.667 158.889C136.108 159.112 136.595 159.228 137.089 159.228C137.584 159.228 138.071 159.112 138.512 158.889L140.733 157.606C140.9 157.543 141.042 157.429 141.142 157.281C141.242 157.133 141.294 156.959 141.291 156.78C141.288 156.602 141.23 156.429 141.125 156.285C141.02 156.14 140.874 156.032 140.705 155.974L140.733 155.96ZM139.899 161.32L142.135 162.61C142.576 162.833 143.063 162.949 143.557 162.949C144.051 162.949 144.539 162.833 144.98 162.61L147.201 161.327C147.373 161.269 147.523 161.159 147.629 161.011C147.735 160.863 147.792 160.686 147.792 160.504C147.792 160.322 147.735 160.145 147.629 159.997C147.523 159.849 147.373 159.739 147.201 159.681L144.966 158.391C144.525 158.167 144.038 158.05 143.543 158.05C143.049 158.05 142.561 158.167 142.121 158.391L139.899 159.674C139.079 160.143 139.086 160.879 139.871 161.334L139.899 161.32ZM153.647 163.422L151.419 162.133C150.977 161.909 150.489 161.791 149.993 161.791C149.498 161.791 149.009 161.909 148.567 162.133L146.353 163.415C145.568 163.864 145.568 164.6 146.353 165.055L148.588 166.344C149.029 166.569 149.516 166.686 150.011 166.686C150.505 166.686 150.993 166.569 151.433 166.344L153.655 165.062C154.418 164.628 154.411 163.892 153.619 163.436L153.647 163.422ZM163.114 168.881L158.013 165.938C157.572 165.715 157.085 165.599 156.59 165.599C156.096 165.599 155.609 165.715 155.168 165.938L152.947 167.22C152.774 167.278 152.625 167.389 152.519 167.537C152.413 167.685 152.356 167.862 152.356 168.044C152.356 168.226 152.413 168.403 152.519 168.551C152.625 168.698 152.774 168.809 152.947 168.867L158.048 171.81C158.489 172.033 158.976 172.149 159.471 172.149C159.965 172.149 160.452 172.033 160.893 171.81L163.114 170.528C163.281 170.464 163.423 170.35 163.523 170.203C163.623 170.055 163.675 169.88 163.672 169.702C163.669 169.523 163.611 169.35 163.506 169.206C163.401 169.062 163.255 168.953 163.086 168.895L163.114 168.881ZM69.3015 127.496L74.4028 130.439C74.8438 130.662 75.3311 130.779 75.8253 130.779C76.3194 130.779 76.8067 130.662 77.2477 130.439L79.469 129.157C79.6413 129.099 79.7911 128.988 79.8971 128.841C80.0032 128.693 80.0603 128.516 80.0603 128.334C80.0603 128.152 80.0032 127.975 79.8971 127.827C79.7911 127.679 79.6413 127.569 79.469 127.51L74.3677 124.567C73.9267 124.344 73.4395 124.228 72.9453 124.228C72.4511 124.228 71.9638 124.344 71.5228 124.567L69.3015 125.85C69.1292 125.908 68.9794 126.019 68.8734 126.166C68.7673 126.314 68.7102 126.491 68.7102 126.673C68.7102 126.855 68.7673 127.032 68.8734 127.18C68.9794 127.328 69.1292 127.438 69.3015 127.496ZM78.6281 132.878L80.8634 134.167C81.3045 134.39 81.7918 134.506 82.2859 134.506C82.7801 134.506 83.2673 134.39 83.7084 134.167L85.9297 132.885C86.102 132.827 86.2517 132.716 86.3578 132.568C86.4639 132.421 86.5209 132.243 86.5209 132.062C86.5209 131.88 86.4639 131.703 86.3578 131.555C86.2517 131.407 86.102 131.296 85.9297 131.238L83.6944 129.949C83.2538 129.724 82.7664 129.607 82.2719 129.607C81.7774 129.607 81.29 129.724 80.8494 129.949L78.6281 131.224C78.4528 131.279 78.2994 131.388 78.1899 131.536C78.0805 131.684 78.0208 131.862 78.0192 132.046C78.0176 132.23 78.0744 132.409 78.1813 132.559C78.2882 132.708 78.4397 132.82 78.6141 132.878H78.6281ZM87.3241 137.895C87.7646 138.12 88.2521 138.237 88.7466 138.237C89.2411 138.237 89.7285 138.12 90.1691 137.895L92.3903 136.613C93.1751 136.164 93.1681 135.429 92.3903 134.973L90.155 133.684C89.7145 133.459 89.227 133.342 88.7325 133.342C88.2381 133.342 87.7506 133.459 87.3101 133.684L85.0888 134.966C84.304 135.415 84.311 136.15 85.0888 136.606L87.3241 137.895ZM93.7847 141.63C94.2253 141.855 94.7127 141.972 95.2072 141.972C95.7017 141.972 96.1892 141.855 96.6297 141.63L98.851 140.348C99.6358 139.899 99.6288 139.163 98.851 138.708L96.6157 137.419C96.1746 137.196 95.6874 137.08 95.1932 137.08C94.699 137.08 94.2118 137.196 93.7708 137.419L91.5495 138.701C91.3771 138.759 91.2274 138.87 91.1214 139.018C91.0153 139.165 90.9582 139.342 90.9582 139.524C90.9582 139.706 91.0153 139.883 91.1214 140.031C91.2274 140.179 91.3771 140.29 91.5495 140.348L93.7847 141.63ZM100.224 141.139L98.0031 142.422C97.8308 142.48 97.6811 142.591 97.575 142.738C97.4689 142.886 97.4119 143.063 97.4119 143.245C97.4119 143.427 97.4689 143.604 97.575 143.752C97.6811 143.9 97.8308 144.01 98.0031 144.069L100.238 145.358C100.679 145.581 101.167 145.697 101.661 145.697C102.155 145.697 102.642 145.581 103.083 145.358L105.305 144.076C105.477 144.017 105.627 143.907 105.733 143.759C105.839 143.611 105.896 143.434 105.896 143.252C105.896 143.07 105.839 142.893 105.733 142.745C105.627 142.598 105.477 142.487 105.305 142.429L103.069 141.139C102.626 140.914 102.137 140.797 101.64 140.797C101.143 140.797 100.653 140.914 100.21 141.139H100.224ZM106.818 144.79L104.324 146.234C103.623 146.64 103.623 147.306 104.324 147.719L106.832 149.163C107.231 149.365 107.671 149.47 108.118 149.47C108.565 149.47 109.005 149.365 109.404 149.163L111.898 147.761C112.053 147.708 112.188 147.608 112.283 147.475C112.379 147.342 112.43 147.182 112.43 147.019C112.43 146.855 112.379 146.695 112.283 146.562C112.188 146.429 112.053 146.329 111.898 146.276L109.39 144.825C108.992 144.616 108.551 144.503 108.101 144.497C107.652 144.491 107.207 144.591 106.804 144.79H106.818ZM113.279 148.525L110.784 149.927C110.084 150.333 110.084 150.999 110.784 151.412L113.293 152.863C113.691 153.065 114.132 153.17 114.579 153.17C115.025 153.17 115.466 153.065 115.865 152.863L118.359 151.461C118.514 151.408 118.649 151.308 118.744 151.175C118.839 151.042 118.89 150.882 118.89 150.718C118.89 150.555 118.839 150.395 118.744 150.262C118.649 150.129 118.514 150.028 118.359 149.976L115.851 148.525C115.45 148.321 115.007 148.214 114.558 148.214C114.108 148.214 113.665 148.321 113.265 148.525H113.279ZM119.74 152.253L117.245 153.689C117.09 153.742 116.955 153.842 116.86 153.976C116.765 154.109 116.714 154.268 116.714 154.432C116.714 154.596 116.765 154.756 116.86 154.889C116.955 155.022 117.09 155.122 117.245 155.175L119.754 156.625C120.152 156.827 120.593 156.933 121.039 156.933C121.486 156.933 121.927 156.827 122.325 156.625L124.82 155.182C124.975 155.129 125.109 155.029 125.205 154.896C125.3 154.763 125.351 154.603 125.351 154.439C125.351 154.275 125.3 154.116 125.205 153.983C125.109 153.849 124.975 153.749 124.82 153.696L122.311 152.246C121.914 152.047 121.476 151.945 121.032 151.946C120.587 151.947 120.15 152.052 119.754 152.253H119.74ZM126.2 155.981L123.706 157.417C123.551 157.47 123.416 157.57 123.321 157.703C123.226 157.837 123.174 157.996 123.174 158.16C123.174 158.324 123.226 158.484 123.321 158.617C123.416 158.75 123.551 158.85 123.706 158.903L126.214 160.353C126.613 160.555 127.053 160.66 127.5 160.66C127.947 160.66 128.387 160.555 128.786 160.353L131.28 158.91C131.981 158.503 131.981 157.838 131.28 157.424L128.772 155.981C128.371 155.777 127.928 155.67 127.479 155.67C127.03 155.67 126.587 155.777 126.186 155.981H126.2ZM132.654 159.709L130.166 161.152C130.011 161.205 129.877 161.305 129.781 161.438C129.686 161.571 129.635 161.731 129.635 161.895C129.635 162.059 129.686 162.218 129.781 162.352C129.877 162.485 130.011 162.585 130.166 162.638L132.675 164.081C133.073 164.283 133.514 164.388 133.961 164.388C134.408 164.388 134.848 164.283 135.247 164.081L137.741 162.645C137.896 162.592 138.031 162.492 138.126 162.359C138.221 162.225 138.272 162.066 138.272 161.902C138.272 161.738 138.221 161.578 138.126 161.445C138.031 161.312 137.896 161.212 137.741 161.159L135.232 159.709C134.831 159.504 134.387 159.398 133.936 159.398C133.486 159.398 133.041 159.504 132.64 159.709H132.654ZM141.714 167.816L144.209 166.38C144.91 165.973 144.91 165.307 144.209 164.894L141.7 163.443C141.302 163.242 140.861 163.136 140.414 163.136C139.968 163.136 139.527 163.242 139.129 163.443L136.641 164.88C136.486 164.933 136.351 165.033 136.256 165.166C136.161 165.299 136.11 165.459 136.11 165.623C136.11 165.787 136.161 165.946 136.256 166.079C136.351 166.213 136.486 166.313 136.641 166.366L139.15 167.816C139.545 168.015 139.982 168.118 140.425 168.118C140.868 168.118 141.304 168.015 141.7 167.816H141.714ZM148.175 171.551L150.669 170.107C151.37 169.701 151.37 169.035 150.669 168.622L148.161 167.178C147.763 166.973 147.322 166.866 146.875 166.866C146.428 166.866 145.987 166.973 145.589 167.178L143.095 168.615C142.394 169.028 142.394 169.687 143.095 170.1L145.603 171.551C146 171.75 146.438 171.854 146.882 171.854C147.326 171.854 147.764 171.75 148.161 171.551H148.175ZM157.284 172.434L154.776 170.983C154.377 170.781 153.937 170.676 153.49 170.676C153.043 170.676 152.603 170.781 152.204 170.983L149.716 172.427C149.016 172.833 149.016 173.499 149.716 173.912L152.225 175.356C152.624 175.558 153.064 175.663 153.511 175.663C153.958 175.663 154.398 175.558 154.797 175.356L157.291 173.912C157.957 173.506 157.95 172.84 157.235 172.434H157.284ZM63.1702 130.867L71.2706 135.548C71.6691 135.75 72.1096 135.855 72.5564 135.855C73.0032 135.855 73.4436 135.75 73.8422 135.548L76.3368 134.111C77.0375 133.698 77.0375 133.039 76.3368 132.626L68.2434 127.945C67.8437 127.743 67.402 127.638 66.9541 127.638C66.5062 127.638 66.0645 127.743 65.6648 127.945L63.1772 129.381C63.022 129.434 62.8869 129.533 62.791 129.666C62.6951 129.798 62.6431 129.958 62.6423 130.122C62.6415 130.285 62.692 130.445 62.7867 130.579C62.8814 130.713 63.0154 130.813 63.1702 130.867ZM75.2226 137.825L77.7312 139.276C78.1298 139.478 78.5703 139.583 79.017 139.583C79.4638 139.583 79.9043 139.478 80.3029 139.276L82.7904 137.839C83.4912 137.433 83.4912 136.767 82.7904 136.354L80.2818 134.903C79.8833 134.701 79.4428 134.596 78.996 134.596C78.5493 134.596 78.1087 134.701 77.7102 134.903L75.2156 136.34C74.5009 136.76 74.5079 137.412 75.2226 137.825ZM81.6763 141.553L84.1849 143.003C84.5846 143.205 85.0263 143.311 85.4742 143.311C85.9221 143.311 86.3637 143.205 86.7635 143.003L89.2511 141.56C89.4061 141.507 89.5407 141.407 89.636 141.274C89.7313 141.141 89.7825 140.981 89.7825 140.817C89.7825 140.653 89.7313 140.494 89.636 140.361C89.5407 140.227 89.4061 140.127 89.2511 140.074L86.7425 138.631C86.344 138.429 85.9035 138.324 85.4567 138.324C85.0099 138.324 84.5694 138.429 84.1708 138.631L81.6763 140.067C81.5213 140.12 81.3867 140.22 81.2914 140.354C81.1961 140.487 81.1449 140.646 81.1449 140.81C81.1449 140.974 81.1961 141.134 81.2914 141.267C81.3867 141.4 81.5213 141.5 81.6763 141.553ZM88.137 145.288L90.6455 146.731C91.0441 146.933 91.4846 147.038 91.9314 147.038C92.3782 147.038 92.8186 146.933 93.2172 146.731L95.7117 145.295C95.8667 145.242 96.0014 145.142 96.0966 145.009C96.1919 144.875 96.2432 144.716 96.2432 144.552C96.2432 144.388 96.1919 144.229 96.0966 144.095C96.0014 143.962 95.8667 143.862 95.7117 143.809L93.1961 142.366C92.7976 142.164 92.3571 142.059 91.9104 142.059C91.4636 142.059 91.0231 142.164 90.6245 142.366L88.1299 143.809C87.4222 144.209 87.4292 144.874 88.137 145.288ZM99.6778 150.466L102.172 149.03C102.327 148.977 102.462 148.877 102.557 148.743C102.653 148.61 102.704 148.451 102.704 148.287C102.704 148.123 102.653 147.963 102.557 147.83C102.462 147.697 102.327 147.597 102.172 147.544L99.6638 146.094C99.2653 145.892 98.8248 145.786 98.378 145.786C97.9312 145.786 97.4908 145.892 97.0922 146.094L94.5976 147.537C93.8969 147.944 93.8969 148.609 94.5976 149.023L97.1062 150.473C97.5053 150.674 97.9461 150.778 98.3929 150.777C98.8397 150.776 99.2798 150.669 99.6778 150.466ZM106.138 154.194L108.633 152.757C108.788 152.705 108.923 152.605 109.018 152.471C109.113 152.338 109.164 152.178 109.164 152.015C109.164 151.851 109.113 151.691 109.018 151.558C108.923 151.425 108.788 151.325 108.633 151.272L106.125 149.821C105.726 149.62 105.285 149.514 104.839 149.514C104.392 149.514 103.951 149.62 103.553 149.821L101.058 151.258C100.903 151.311 100.769 151.411 100.673 151.544C100.578 151.677 100.527 151.837 100.527 152.001C100.527 152.164 100.578 152.324 100.673 152.457C100.769 152.591 100.903 152.691 101.058 152.743L103.567 154.194C103.965 154.396 104.406 154.501 104.853 154.501C105.299 154.501 105.74 154.396 106.138 154.194ZM112.599 157.929L115.094 156.485C115.794 156.079 115.794 155.413 115.094 155L112.585 153.556C112.187 153.354 111.746 153.249 111.299 153.249C110.853 153.249 110.412 153.354 110.013 153.556L107.519 154.993C107.364 155.046 107.229 155.146 107.134 155.279C107.039 155.412 106.988 155.572 106.988 155.736C106.988 155.899 107.039 156.059 107.134 156.192C107.229 156.325 107.364 156.425 107.519 156.478L110.028 157.929C110.426 158.131 110.867 158.236 111.313 158.236C111.76 158.236 112.201 158.131 112.599 157.929ZM119.06 161.657L121.554 160.255C121.709 160.202 121.844 160.102 121.939 159.969C122.035 159.836 122.086 159.676 122.086 159.512C122.086 159.349 122.035 159.189 121.939 159.056C121.844 158.923 121.709 158.823 121.554 158.77L119.046 157.319C118.647 157.117 118.207 157.012 117.76 157.012C117.313 157.012 116.873 157.117 116.474 157.319L113.98 158.763C113.825 158.816 113.69 158.916 113.595 159.049C113.499 159.182 113.448 159.342 113.448 159.505C113.448 159.669 113.499 159.829 113.595 159.962C113.69 160.095 113.825 160.195 113.98 160.248L116.488 161.692C116.889 161.887 117.329 161.986 117.775 161.98C118.22 161.974 118.658 161.863 119.053 161.657H119.06ZM125.52 165.385L128.015 163.948C128.17 163.895 128.305 163.795 128.4 163.662C128.495 163.529 128.546 163.369 128.546 163.205C128.546 163.041 128.495 162.882 128.4 162.749C128.305 162.615 128.17 162.515 128.015 162.462L125.506 161.012C125.107 160.81 124.665 160.705 124.217 160.705C123.769 160.705 123.328 160.81 122.928 161.012L120.44 162.455C120.285 162.508 120.151 162.608 120.055 162.742C119.96 162.875 119.909 163.034 119.909 163.198C119.909 163.362 119.96 163.522 120.055 163.655C120.151 163.788 120.285 163.888 120.44 163.941L122.949 165.391C123.348 165.592 123.789 165.696 124.236 165.695C124.682 165.694 125.122 165.588 125.52 165.385ZM131.981 169.112L134.476 167.676C135.176 167.269 135.176 166.604 134.476 166.19L131.967 164.74C131.569 164.538 131.128 164.433 130.681 164.433C130.235 164.433 129.794 164.538 129.396 164.74L126.908 166.176C126.207 166.583 126.207 167.248 126.908 167.662L129.417 169.112C129.814 169.313 130.253 169.418 130.699 169.418C131.144 169.418 131.583 169.313 131.981 169.112ZM133.383 171.39L135.891 172.84C136.29 173.042 136.73 173.147 137.177 173.147C137.624 173.147 138.064 173.042 138.463 172.84L140.95 171.397C141.651 170.99 141.651 170.325 140.95 169.911L138.442 168.468C138.043 168.266 137.603 168.161 137.156 168.161C136.709 168.161 136.269 168.266 135.87 168.468L133.376 169.904C133.22 169.956 133.085 170.054 132.988 170.187C132.891 170.319 132.839 170.478 132.837 170.642C132.836 170.806 132.885 170.966 132.979 171.1C133.073 171.234 133.207 171.335 133.362 171.39H133.383ZM151.279 175.888L144.895 172.203C144.497 172.001 144.056 171.895 143.61 171.895C143.163 171.895 142.722 172.001 142.324 172.203L139.829 173.646C139.129 174.052 139.129 174.718 139.829 175.132L146.213 178.81C146.611 179.012 147.052 179.117 147.499 179.117C147.945 179.117 148.386 179.012 148.785 178.81L151.286 177.402C151.456 177.361 151.608 177.265 151.717 177.127C151.825 176.99 151.884 176.82 151.884 176.645C151.884 176.47 151.825 176.3 151.717 176.163C151.608 176.025 151.456 175.929 151.286 175.888H151.279ZM57.2141 134.504L68.7059 141.139C69.1555 141.367 69.6524 141.486 70.1564 141.486C70.6604 141.486 71.1573 141.367 71.6069 141.139L73.7721 139.892C74.571 139.43 74.564 138.68 73.7721 138.217L62.2943 131.582C61.8447 131.354 61.3478 131.235 60.8438 131.235C60.3398 131.235 59.8429 131.354 59.3933 131.582L57.2281 132.829C56.4012 133.256 56.4082 134.034 57.2141 134.504ZM72.9873 143.613L75.1596 144.867C75.6109 145.094 76.1087 145.211 76.6136 145.211C77.1184 145.211 77.6163 145.094 78.0676 144.867L80.2258 143.62C80.4006 143.559 80.5522 143.446 80.6594 143.295C80.7667 143.145 80.8244 142.964 80.8244 142.779C80.8244 142.594 80.7667 142.414 80.6594 142.263C80.5522 142.112 80.4006 141.999 80.2258 141.938L78.0535 140.684C77.6027 140.456 77.1047 140.337 76.5995 140.337C76.0944 140.337 75.5964 140.456 75.1456 140.684L72.9873 141.931C72.8125 141.992 72.661 142.105 72.5537 142.256C72.4464 142.407 72.3888 142.587 72.3888 142.772C72.3888 142.957 72.4464 143.138 72.5537 143.288C72.661 143.439 72.8125 143.552 72.9873 143.613ZM79.448 147.341L81.6202 148.595C82.0711 148.823 82.5691 148.942 83.0742 148.942C83.5794 148.942 84.0774 148.823 84.5282 148.595L86.6865 147.348C87.4923 146.885 87.4853 146.136 86.6865 145.666L84.5142 144.412C84.0629 144.186 83.5651 144.068 83.0602 144.068C82.5554 144.068 82.0575 144.186 81.6062 144.412L79.448 145.666C79.2723 145.725 79.1196 145.837 79.0114 145.988C78.9032 146.138 78.845 146.318 78.845 146.504C78.845 146.689 78.9032 146.869 79.0114 147.019C79.1196 147.17 79.2723 147.282 79.448 147.341ZM85.9087 151.069L88.0809 152.323C88.5312 152.553 89.0295 152.672 89.5349 152.672C90.0403 152.672 90.5385 152.553 90.9889 152.323L93.1471 151.076C93.3228 151.017 93.4754 150.905 93.5836 150.754C93.6918 150.604 93.7501 150.424 93.7501 150.238C93.7501 150.053 93.6918 149.873 93.5836 149.722C93.4754 149.572 93.3228 149.46 93.1471 149.401L90.9749 148.14C90.5241 147.912 90.026 147.793 89.5209 147.793C89.0157 147.793 88.5177 147.912 88.0669 148.14L85.9087 149.387C85.0958 149.856 85.1028 150.606 85.9087 151.069ZM92.3693 154.797L94.5416 156.058C94.9924 156.286 95.4904 156.404 95.9955 156.404C96.5007 156.404 96.9988 156.286 97.4496 156.058L99.6078 154.811C99.7834 154.752 99.9361 154.639 100.044 154.489C100.153 154.339 100.211 154.158 100.211 153.973C100.211 153.788 100.153 153.608 100.044 153.457C99.9361 153.307 99.7834 153.195 99.6078 153.136L97.4356 151.882C96.9852 151.652 96.4869 151.532 95.9815 151.532C95.4761 151.532 94.9779 151.652 94.5275 151.882L92.3693 153.129C91.5565 153.577 91.5635 154.334 92.3693 154.797ZM98.83 158.531L101.002 159.786C101.454 160.012 101.951 160.13 102.456 160.13C102.961 160.13 103.459 160.012 103.91 159.786L106.068 158.538C106.243 158.478 106.395 158.364 106.502 158.214C106.609 158.063 106.667 157.883 106.667 157.698C106.667 157.513 106.609 157.332 106.502 157.182C106.395 157.031 106.243 156.917 106.068 156.857L103.889 155.602C103.44 155.375 102.943 155.256 102.439 155.256C101.935 155.256 101.438 155.375 100.988 155.602L98.823 156.85C98.0312 157.312 98.0312 158.062 98.83 158.531ZM105.291 162.259L107.463 163.514C107.914 163.741 108.412 163.86 108.917 163.86C109.422 163.86 109.92 163.741 110.371 163.514L112.529 162.266C112.704 162.206 112.855 162.092 112.963 161.941C113.07 161.791 113.128 161.61 113.128 161.425C113.128 161.24 113.07 161.06 112.963 160.909C112.855 160.759 112.704 160.645 112.529 160.585L110.35 159.33C109.9 159.104 109.403 158.986 108.899 158.986C108.396 158.986 107.899 159.104 107.449 159.33L105.284 160.585C104.478 161.04 104.485 161.797 105.291 162.259ZM111.744 165.987L113.924 167.241C114.373 167.471 114.87 167.59 115.374 167.59C115.878 167.59 116.375 167.471 116.824 167.241L118.99 165.994C119.789 165.532 119.782 164.782 118.99 164.319L116.818 163.058C116.368 162.83 115.871 162.712 115.367 162.712C114.863 162.712 114.366 162.83 113.917 163.058L111.751 164.305C111.573 164.362 111.417 164.473 111.306 164.624C111.195 164.775 111.135 164.957 111.134 165.144C111.133 165.331 111.192 165.513 111.302 165.665C111.411 165.817 111.566 165.929 111.744 165.987ZM118.205 169.715L120.384 170.976C120.834 171.204 121.331 171.323 121.835 171.323C122.339 171.323 122.836 171.204 123.285 170.976L125.45 169.729C126.249 169.266 126.242 168.517 125.45 168.054L123.278 166.8C122.828 166.57 122.33 166.451 121.824 166.451C121.319 166.451 120.821 166.57 120.37 166.8L118.212 168.047C118.046 168.111 117.902 168.223 117.801 168.37C117.7 168.516 117.645 168.69 117.644 168.868C117.644 169.046 117.697 169.221 117.797 169.368C117.897 169.515 118.039 169.629 118.205 169.694V169.715ZM124.666 173.45L126.845 174.704C127.295 174.93 127.792 175.048 128.295 175.048C128.799 175.048 129.296 174.93 129.746 174.704L131.911 173.457C132.086 173.396 132.237 173.283 132.345 173.132C132.452 172.981 132.51 172.801 132.51 172.616C132.51 172.431 132.452 172.251 132.345 172.1C132.237 171.949 132.086 171.836 131.911 171.775L129.739 170.521C129.288 170.293 128.79 170.174 128.285 170.174C127.78 170.174 127.282 170.293 126.831 170.521L124.659 171.796C124.493 171.862 124.351 171.976 124.251 172.123C124.151 172.271 124.098 172.445 124.098 172.623C124.098 172.801 124.151 172.975 124.251 173.123C124.351 173.27 124.493 173.384 124.659 173.45H124.666ZM131.126 177.178L133.298 178.432C133.749 178.66 134.247 178.779 134.753 178.779C135.258 178.779 135.756 178.66 136.207 178.432L138.365 177.185C139.171 176.722 139.164 175.972 138.365 175.503L136.192 174.249C135.741 174.022 135.243 173.905 134.739 173.905C134.234 173.905 133.736 174.022 133.285 174.249L131.126 175.503C130.951 175.562 130.798 175.674 130.69 175.824C130.581 175.975 130.523 176.155 130.523 176.34C130.523 176.525 130.581 176.706 130.69 176.856C130.798 177.007 130.951 177.119 131.126 177.178ZM144.959 179.322L142.786 178.068C142.337 177.84 141.84 177.721 141.336 177.721C140.832 177.721 140.335 177.84 139.885 178.068L137.72 179.315C137.544 179.374 137.392 179.486 137.284 179.636C137.175 179.787 137.117 179.967 137.117 180.152C137.117 180.337 137.175 180.518 137.284 180.668C137.392 180.818 137.544 180.931 137.72 180.99L139.899 182.244C140.349 182.472 140.846 182.59 141.35 182.59C141.854 182.59 142.351 182.472 142.8 182.244L144.966 180.997C145.771 180.541 145.764 179.791 144.98 179.322H144.959ZM61.3273 137.944L56.2821 135.036C55.8325 134.808 55.3356 134.69 54.8316 134.69C54.3276 134.69 53.8307 134.808 53.3811 135.036L51.2159 136.283C50.4171 136.746 50.4241 137.496 51.2159 137.965L56.2541 140.873C56.7049 141.101 57.203 141.22 57.7081 141.22C58.2132 141.22 58.7113 141.101 59.1621 140.873L61.3203 139.626C61.4953 139.566 61.6474 139.453 61.7553 139.303C61.8632 139.153 61.9216 138.973 61.9224 138.788C61.9232 138.603 61.8663 138.422 61.7596 138.271C61.653 138.12 61.5018 138.005 61.3273 137.944ZM67.788 141.679L65.6087 140.418C65.1591 140.19 64.6622 140.071 64.1582 140.071C63.6542 140.071 63.1573 140.19 62.7077 140.418L60.5425 141.665C59.7437 142.128 59.7507 142.877 60.5425 143.34L62.7147 144.594C63.165 144.824 63.6633 144.943 64.1687 144.943C64.6742 144.943 65.1724 144.824 65.6227 144.594L67.781 143.347C67.9594 143.29 68.1153 143.179 68.2263 143.028C68.3372 142.878 68.3974 142.696 68.3982 142.508C68.3989 142.321 68.3403 142.139 68.2306 141.987C68.1209 141.836 67.9659 141.723 67.788 141.665V141.679ZM74.2486 145.407L72.0694 144.153C71.6203 143.923 71.1232 143.804 70.6189 143.804C70.1146 143.804 69.6175 143.923 69.1684 144.153L67.0031 145.4C66.2043 145.862 66.2113 146.612 67.0031 147.075L69.1754 148.336C69.6262 148.564 70.1243 148.682 70.6294 148.682C71.1345 148.682 71.6326 148.564 72.0834 148.336L74.2416 147.089C74.42 147.032 74.576 146.921 74.6869 146.77C74.7979 146.619 74.8581 146.437 74.8588 146.25C74.8596 146.063 74.801 145.881 74.6913 145.729C74.5816 145.578 74.4266 145.465 74.2486 145.407ZM119.466 171.516L78.53 147.88C78.0804 147.653 77.5835 147.534 77.0795 147.534C76.5755 147.534 76.0787 147.653 75.6291 147.88L73.4638 149.128C73.289 149.188 73.1375 149.302 73.0302 149.453C72.9229 149.603 72.8653 149.784 72.8653 149.969C72.8653 150.154 72.9229 150.334 73.0302 150.485C73.1375 150.635 73.289 150.749 73.4638 150.809L114.4 174.438C114.85 174.667 115.349 174.787 115.854 174.787C116.359 174.787 116.858 174.667 117.308 174.438L119.466 173.191C119.642 173.132 119.795 173.019 119.903 172.869C120.011 172.719 120.069 172.538 120.069 172.353C120.069 172.168 120.011 171.988 119.903 171.837C119.795 171.687 119.642 171.575 119.466 171.516ZM125.927 175.244L123.748 173.989C123.299 173.76 122.801 173.64 122.297 173.64C121.793 173.64 121.296 173.76 120.847 173.989L118.681 175.237C117.883 175.699 117.89 176.449 118.681 176.911L120.854 178.173C121.304 178.401 121.803 178.519 122.308 178.519C122.813 178.519 123.311 178.401 123.762 178.173L125.92 176.925C126.098 176.869 126.254 176.758 126.365 176.607C126.476 176.456 126.536 176.274 126.537 176.087C126.538 175.9 126.479 175.717 126.37 175.566C126.26 175.414 126.105 175.301 125.927 175.244ZM132.388 178.972L130.208 177.717C129.759 177.489 129.262 177.371 128.758 177.371C128.254 177.371 127.757 177.489 127.307 177.717L125.142 178.965C124.343 179.427 124.35 180.177 125.142 180.646L127.314 181.901C127.766 182.127 128.264 182.245 128.768 182.245C129.273 182.245 129.771 182.127 130.222 181.901L132.381 180.653C132.555 180.591 132.705 180.476 132.812 180.325C132.918 180.173 132.974 179.992 132.972 179.807C132.971 179.622 132.912 179.442 132.803 179.293C132.694 179.143 132.542 179.031 132.367 178.972H132.388ZM138.981 182.776L136.802 181.522C136.353 181.294 135.856 181.176 135.352 181.176C134.848 181.176 134.351 181.294 133.901 181.522L131.736 182.769C130.937 183.225 130.944 183.982 131.736 184.444L133.908 185.698C134.359 185.926 134.857 186.045 135.362 186.045C135.867 186.045 136.365 185.926 136.816 185.698L138.974 184.451C139.147 184.39 139.297 184.277 139.403 184.127C139.509 183.978 139.566 183.799 139.566 183.616C139.567 183.433 139.512 183.254 139.407 183.104C139.302 182.953 139.153 182.839 138.981 182.776Z" fill="#C6C6C6"/>
<path style="mix-blend-mode:multiply" d="M206.005 68.089L191.641 167.409L188.663 172.665L79.5881 106.222L107.554 11.6738L206.005 68.089Z" fill="url(#paint17_linear_502_12061)"/>
<path d="M188.824 65.6933V172.504L77.5559 108.346V1.53516L188.824 65.6933Z" fill="url(#paint18_linear_502_12061)"/>
<path d="M188.824 64.1582V77.8573L188.319 78.1096L77.556 13.6991L77.0444 0.25226L77.556 0L188.824 64.1582Z" fill="url(#paint19_linear_502_12061)"/>
<path d="M188.319 65.9521V172.756L77.0444 108.598V1.79395L188.319 65.9521Z" fill="url(#paint20_linear_502_12061)"/>
<path d="M80.1277 106.46V20.2432L185.236 80.8487V167.066L80.1277 106.46Z" fill="url(#paint21_linear_502_12061)"/>
<path d="M188.319 64.4111V78.1102L77.0444 13.9521V0.25293L188.319 64.4111Z" fill="url(#paint22_linear_502_12061)"/>
<path d="M82.398 8.16302L89.7906 12.4304C90.0709 12.5916 90.2951 12.4304 90.2951 12.1361C90.286 11.9607 90.2356 11.7899 90.1479 11.6377C90.0602 11.4854 89.9378 11.3561 89.7906 11.2602L82.398 6.99282C82.1177 6.83165 81.8865 6.95778 81.8865 7.28011C81.8958 7.45725 81.947 7.62965 82.036 7.78313C82.1249 7.93662 82.249 8.06682 82.398 8.16302ZM89.7906 13.8879L82.398 9.62753C82.1177 9.45936 81.8865 9.62753 81.8865 9.91483C81.8975 10.0916 81.9494 10.2634 82.0381 10.4166C82.1269 10.5698 82.2501 10.7003 82.398 10.7977L89.7906 15.0581C90.0709 15.2263 90.2951 15.0932 90.2951 14.7708C90.2854 14.5946 90.2349 14.423 90.1473 14.2697C90.0597 14.1165 89.9376 13.9857 89.7906 13.8879ZM89.7906 16.5226L82.398 12.2552C82.1177 12.0941 81.8865 12.2552 81.8865 12.5495C81.8969 12.7255 81.9486 12.8965 82.0375 13.0487C82.1264 13.2008 82.2499 13.3299 82.398 13.4254L89.7906 17.6929C90.0709 17.854 90.2951 17.6928 90.2951 17.4056C90.2871 17.2289 90.2372 17.0567 90.1494 16.9032C90.0617 16.7497 89.9387 16.6192 89.7906 16.5226Z" fill="white"/>
<path d="M183.835 68.6213C183.835 69.6234 183.134 70.0228 182.251 69.5183C181.792 69.2192 181.41 68.8169 181.135 68.3435C180.86 67.8702 180.7 67.3389 180.667 66.7925C180.667 65.7904 181.368 65.391 182.251 65.8885C182.711 66.1883 183.093 66.5917 183.368 67.0664C183.643 67.541 183.803 68.0736 183.835 68.6213Z" fill="white"/>
<path d="M179.056 65.8469C179.056 66.849 178.355 67.2484 177.472 66.7439C177.013 66.4448 176.631 66.0425 176.356 65.5691C176.081 65.0958 175.921 64.5645 175.888 64.0181C175.888 63.016 176.589 62.6166 177.472 63.1141C177.932 63.4138 178.314 63.8173 178.589 64.292C178.864 64.7666 179.024 65.2992 179.056 65.8469Z" fill="white"/>
<path d="M174.284 63.0715C174.284 64.0736 173.583 64.473 172.7 63.9685C172.242 63.6694 171.859 63.2671 171.584 62.7937C171.309 62.3204 171.149 61.7891 171.116 61.2427C171.116 60.2406 171.817 59.8412 172.7 60.3387C173.16 60.6385 173.542 61.0419 173.817 61.5166C174.092 61.9912 174.252 62.5238 174.284 63.0715Z" fill="white"/>
<g style="mix-blend-mode:multiply">
<path d="M172.385 82.8814V84.3459L165.798 80.541V90.204L178.936 97.7928V86.6583L172.385 82.8814Z" fill="#F1F2F2"/>
</g>
<path d="M171.586 83.1479V84.6124L164.999 80.8145V90.4704L177.086 98.7109L178.138 98.0592V86.9318L171.586 83.1479Z" fill="#696969"/>
<path d="M164.396 90.6873L177.542 98.2691V89.2158L164.396 81.627V90.6873Z" fill="white"/>
<path d="M163.927 91.0936L177.073 98.6825V90.6172L163.927 83.0283V91.0936Z" fill="#B0B0B0"/>
<g style="mix-blend-mode:multiply">
<path d="M153.332 71.8453V73.3098L146.745 69.5049V79.1678L159.891 86.7567V75.6222L153.332 71.8453Z" fill="#F1F2F2"/>
</g>
<path d="M152.533 72.1117V73.5762L145.947 69.7783V79.4343L158.034 87.6748L159.085 87.0231V75.8956L152.533 72.1117Z" fill="#6B6B6B"/>
<path d="M145.344 79.6512L158.49 87.233V78.1796L145.344 70.5908V79.6512Z" fill="white"/>
<path d="M144.881 80.0575L158.02 87.6463V79.581L144.881 71.9922V80.0575Z" fill="#B1B1B1"/>
<g style="mix-blend-mode:multiply">
<path d="M134.286 60.8092V62.2737L127.7 58.4688V68.1317L140.838 75.7205V64.5861L134.286 60.8092Z" fill="#F1F2F2"/>
</g>
<path d="M133.488 61.0746V62.5391L126.894 58.7412V68.3972L138.981 76.6377L140.039 75.986V64.8585L133.488 61.0746Z" fill="url(#paint23_linear_502_12061)"/>
<path d="M126.298 68.615L139.437 76.1968V67.1435L126.298 59.5547V68.615Z" fill="white"/>
<path d="M125.829 69.0214L138.967 76.6102V68.5449L125.829 60.9561V69.0214Z" fill="#B1B1B1"/>
<g style="mix-blend-mode:multiply">
<path d="M115.234 49.773V51.2375L108.647 47.4326V57.0956L121.786 64.6844V53.5499L115.234 49.773Z" fill="#F1F2F2"/>
</g>
<path d="M114.435 50.0385V51.503L107.848 47.7051V57.361L119.936 65.6015L120.987 64.9499V53.8224L114.435 50.0385Z" fill="#696969"/>
<path d="M107.246 57.5789L120.384 65.1607V56.1074L107.246 48.5186V57.5789Z" fill="white"/>
<path d="M106.776 57.9852L119.922 65.5741V57.5087L106.776 49.9199V57.9852Z" fill="#8C8C8C"/>
<g style="mix-blend-mode:multiply">
<path d="M96.1813 38.7357V40.2003L89.5945 36.4023V46.0583L102.733 53.6471V42.5126L96.1813 38.7357Z" fill="#F1F2F2"/>
</g>
<path d="M95.3824 39.0024V40.4669L88.7957 36.6689V46.3249L100.883 54.5654L101.934 53.9137V42.7863L95.3824 39.0024Z" fill="#696969"/>
<path d="M88.1929 46.5418L101.338 54.1236V45.0703L88.1929 37.4814V46.5418Z" fill="white"/>
<path d="M87.7234 46.9481L100.869 54.537V46.4716L87.7234 38.8828V46.9481Z" fill="#B0B0B0"/>
<g style="mix-blend-mode:multiply">
<path d="M172.385 136.663V138.127L165.798 134.322V143.985L178.936 151.574V140.447L172.385 136.663Z" fill="#F1F2F2"/>
</g>
<path d="M171.586 136.928V138.393L164.999 134.588V144.251L177.086 152.491L178.138 151.84V140.712L171.586 136.928Z" fill="#606060"/>
<path d="M164.396 144.469L177.542 152.05V142.997L164.396 135.408V144.469Z" fill="white"/>
<path d="M163.927 144.875L177.073 152.464V144.398L163.927 136.81V144.875Z" fill="#B0B0B0"/>
<g style="mix-blend-mode:multiply">
<path d="M153.332 125.626V127.09L146.745 123.285V132.948L159.891 140.537V129.409L153.332 125.626Z" fill="#F1F2F2"/>
</g>
<path d="M152.533 125.892V127.357L145.947 123.552V133.215L158.034 141.455L159.085 140.804V129.676L152.533 125.892Z" fill="#727272"/>
<path d="M145.344 133.431L158.49 141.013V131.96L145.344 124.371V133.431Z" fill="white"/>
<path d="M144.881 133.838L158.02 141.427V133.361L144.881 125.772V133.838Z" fill="#B1B1B1"/>
<g style="mix-blend-mode:multiply">
<path d="M134.286 114.589V116.054L127.7 112.249V121.912L140.838 129.501V118.373L134.286 114.589Z" fill="#F1F2F2"/>
</g>
<path d="M133.488 114.856V116.321L126.894 112.516V122.179L138.981 130.419L140.039 129.767V118.64L133.488 114.856Z" fill="url(#paint24_linear_502_12061)"/>
<path d="M126.298 122.395L139.437 129.977V120.924L126.298 113.335V122.395Z" fill="white"/>
<path d="M125.829 122.802L138.967 130.39V122.325L125.829 114.736V122.802Z" fill="#B1B1B1"/>
<g style="mix-blend-mode:multiply">
<path d="M115.234 103.553V105.018L108.647 101.213V110.876L121.786 118.465V107.337L115.234 103.553Z" fill="#F1F2F2"/>
</g>
<path d="M114.435 103.819V105.283L107.848 101.479V111.141L119.936 119.382L120.987 118.73V107.603L114.435 103.819Z" fill="#606060"/>
<path d="M107.246 111.359L120.384 118.941V109.888L107.246 102.299V111.359Z" fill="white"/>
<path d="M106.776 111.766L119.922 119.354V111.289L106.776 103.7V111.766Z" fill="#8C8C8C"/>
<g style="mix-blend-mode:multiply">
<path d="M96.1813 92.5172V93.9817L89.5945 90.1768V99.8397L102.733 107.429V96.3011L96.1813 92.5172Z" fill="#F1F2F2"/>
</g>
<path d="M95.3824 92.7828V94.2473L88.7957 90.4424V100.105L100.883 108.346L101.934 107.694V96.5667L95.3824 92.7828Z" fill="#606060"/>
<path d="M88.1929 100.323L101.338 107.905V98.8515L88.1929 91.2627V100.323Z" fill="white"/>
<path d="M87.7234 100.729L100.869 108.318V100.253L87.7234 92.6641V100.729Z" fill="#B0B0B0"/>
<g style="mix-blend-mode:multiply">
<path d="M172.385 118.619V120.083L165.798 116.278V125.941L178.936 133.53V122.403L172.385 118.619Z" fill="#F1F2F2"/>
</g>
<path d="M171.586 118.884V120.349L164.999 116.544V126.207L177.086 134.447L178.138 133.796V122.668L171.586 118.884Z" fill="#606060"/>
<path d="M164.396 126.425L177.542 134.006V124.953L164.396 117.364V126.425Z" fill="white"/>
<path d="M163.927 126.831L177.073 134.42V126.354L163.927 118.766V126.831Z" fill="#B0B0B0"/>
<g style="mix-blend-mode:multiply">
<path d="M153.332 107.583V109.047L146.745 105.242V114.905L159.891 122.494V111.366L153.332 107.583Z" fill="#F1F2F2"/>
</g>
<path d="M152.533 107.848V109.313L145.947 105.508V115.171L158.034 123.411L159.085 122.76V111.632L152.533 107.848Z" fill="#727272"/>
<path d="M145.344 115.388L158.49 122.97V113.917L145.344 106.328V115.388Z" fill="white"/>
<path d="M144.881 115.795L158.02 123.384V115.318L144.881 107.729V115.795Z" fill="#B1B1B1"/>
<g style="mix-blend-mode:multiply">
<path d="M134.286 96.5455V98.01L127.7 94.2051V103.868L140.838 111.457V100.329L134.286 96.5455Z" fill="#F1F2F2"/>
</g>
<path d="M133.488 96.8121V98.2766L126.894 94.4717V104.135L138.981 112.375L140.039 111.723V100.596L133.488 96.8121Z" fill="url(#paint25_linear_502_12061)"/>
<path d="M126.298 104.351L139.437 111.933V102.88L126.298 95.291V104.351Z" fill="white"/>
<path d="M125.829 104.759L138.967 112.348V104.282L125.829 96.6934V104.759Z" fill="#B1B1B1"/>
<g style="mix-blend-mode:multiply">
<path d="M115.234 85.5094V86.9739L108.647 83.1689V92.8319L121.786 100.421V89.2863L115.234 85.5094Z" fill="#F1F2F2"/>
</g>
<path d="M114.435 85.7758V87.2403L107.848 83.4424V93.0983L119.936 101.339L120.987 100.687V89.5597L114.435 85.7758Z" fill="#696969"/>
<path d="M107.246 93.3152L120.384 100.897V91.8437L107.246 84.2549V93.3152Z" fill="white"/>
<path d="M106.776 93.7216L119.922 101.31V93.2451L106.776 85.6562V93.7216Z" fill="#8C8C8C"/>
<g style="mix-blend-mode:multiply">
<path d="M96.1813 74.4732V75.9377L89.5945 72.1328V81.7958L102.733 89.3846V78.2501L96.1813 74.4732Z" fill="#F1F2F2"/>
</g>
<path d="M95.3824 74.7387V76.2032L88.7957 72.4053V82.0612L100.883 90.3017L101.934 89.6501V78.5226L95.3824 74.7387Z" fill="#696969"/>
<path d="M88.1929 82.2791L101.338 89.8609V80.8076L88.1929 73.2188V82.2791Z" fill="white"/>
<path d="M87.7234 82.6854L100.869 90.2743V82.2089L87.7234 74.6201V82.6854Z" fill="#B0B0B0"/>
<g style="mix-blend-mode:multiply">
<path d="M172.385 100.925V102.39L165.798 98.585V108.248L178.936 115.837V104.709L172.385 100.925Z" fill="#F1F2F2"/>
</g>
<path d="M171.586 101.192V102.656L164.999 98.8516V108.515L177.086 116.755L178.138 116.103V104.976L171.586 101.192Z" fill="#606060"/>
<path d="M164.396 108.731L177.542 116.313V107.26L164.396 99.6709V108.731Z" fill="white"/>
<path d="M163.927 109.138L177.073 116.726V108.661L163.927 101.072V109.138Z" fill="#B0B0B0"/>
<g style="mix-blend-mode:multiply">
<path d="M153.332 89.8892V91.3537L146.745 87.5488V97.2118L159.891 104.801V93.6731L153.332 89.8892Z" fill="#F1F2F2"/>
</g>
<path d="M152.533 90.1547V91.6192L145.947 87.8213V97.4772L158.034 105.718L159.085 105.066V93.9386L152.533 90.1547Z" fill="#6B6B6B"/>
<path d="M145.344 97.6951L158.49 105.277V96.2236L145.344 88.6348V97.6951Z" fill="white"/>
<path d="M144.881 98.1014L158.02 105.69V97.625L144.881 90.0361V98.1014Z" fill="#B1B1B1"/>
<g style="mix-blend-mode:multiply">
<path d="M134.286 78.8521V80.3166L127.7 76.5117V86.1747L140.838 93.7635V82.629L134.286 78.8521Z" fill="#F1F2F2"/>
</g>
<path d="M133.488 79.1186V80.5831L126.894 76.7852V86.4411L138.981 94.6816L140.039 94.0299V82.9025L133.488 79.1186Z" fill="url(#paint26_linear_502_12061)"/>
<path d="M126.298 86.659L139.437 94.2408V85.1875L126.298 77.5986V86.659Z" fill="white"/>
<path d="M125.829 87.0653L138.967 94.6541V86.5888L125.829 79V87.0653Z" fill="#B1B1B1"/>
<g style="mix-blend-mode:multiply">
<path d="M115.234 67.816V69.2805L108.647 65.4756V75.1386L121.786 82.7274V71.5929L115.234 67.816Z" fill="#F1F2F2"/>
</g>
<path d="M114.435 68.0824V69.5469L107.848 65.749V75.405L119.936 83.6455L120.987 82.9938V71.8663L114.435 68.0824Z" fill="#696969"/>
<path d="M107.246 75.6219L120.384 83.2037V74.1504L107.246 66.5615V75.6219Z" fill="white"/>
<path d="M106.776 76.0282L119.922 83.617V75.5517L106.776 67.9629V76.0282Z" fill="#8C8C8C"/>
<g style="mix-blend-mode:multiply">
<path d="M96.1813 56.7799V58.2444L89.5945 54.4395V64.1024L102.733 71.6912V60.5568L96.1813 56.7799Z" fill="#F1F2F2"/>
</g>
<path d="M95.3824 57.0463V58.5108L88.7957 54.7129V64.3688L100.883 72.6093L101.934 71.9577V60.8302L95.3824 57.0463Z" fill="#696969"/>
<path d="M88.1929 64.5857L101.338 72.1676V63.1142L88.1929 55.5254V64.5857Z" fill="white"/>
<path d="M87.7234 64.9921L100.869 72.5809V64.5156L87.7234 56.9268V64.9921Z" fill="#B0B0B0"/>
<path style="mix-blend-mode:screen" d="M218.759 80.5615L138.512 34.1387L117.784 46.4504V65.8674L197.989 112.213V112.227L197.996 112.22L198.003 112.227V112.213L218.759 99.9856V80.5615Z" fill="#23A8FA"/>
<g opacity="0.8">
<path d="M197.989 92.9087V112.228L203.588 108.99V89.5732L197.989 92.9087Z" fill="url(#paint27_linear_502_12061)"/>
<path d="M198.003 92.9091V112.228L117.784 65.8682V46.4512L198.003 92.9091Z" fill="url(#paint28_linear_502_12061)"/>
<path d="M117.784 46.4508L198.003 92.9087L203.588 89.5733L123.334 43.1504L117.784 46.4508Z" fill="url(#paint29_linear_502_12061)"/>
</g>
<path d="M194.121 104.358L191.669 100.154C191.587 99.9639 191.456 99.799 191.29 99.6759C191.124 99.5528 190.928 99.476 190.723 99.4532L190.022 98.2129C191.094 97.2039 190.989 94.8074 189.693 92.5721C188.291 90.1266 185.979 88.8022 184.556 89.608C183.134 90.4139 183.155 93.0556 184.556 95.5011C185.86 97.7364 187.892 99.0047 189.314 98.6193L190.015 99.8596C189.931 100.046 189.899 100.252 189.921 100.455C189.943 100.658 190.019 100.852 190.141 101.016L192.594 105.22C192.895 105.746 193.392 106.033 193.701 105.858L194.121 105.62C194.429 105.458 194.429 104.884 194.121 104.358ZM188.803 96.9376C187.871 97.4701 186.357 96.5942 185.418 94.9826C184.479 93.3709 184.486 91.6401 185.418 91.1076C186.35 90.575 187.871 91.4439 188.803 93.0556C189.735 94.6672 189.735 96.405 188.803 96.9376Z" fill="white"/>
<path d="M180.639 97.1907L123.131 63.8573V54.5938L180.639 87.9271V97.1907Z" fill="white"/>
<path style="mix-blend-mode:multiply" d="M94.3314 60.942L87.3802 65.0832L77.4299 58.8818V115.185L119.011 147.993L129.22 141.714V81.0807L94.3314 60.942Z" fill="url(#paint30_linear_502_12061)"/>
<path d="M88.1719 64.3963V69.2383L55.6794 50.48C55.4179 50.329 55.1213 50.2493 54.8193 50.249C54.5174 50.2487 54.2206 50.3277 53.9588 50.4781C53.697 50.6286 53.4793 50.8451 53.3274 51.1062C53.1756 51.3672 53.095 51.6635 53.0938 51.9655V111.751L115.094 147.789C115.806 148.204 116.618 148.417 117.443 148.406C118.267 148.395 119.073 148.16 119.775 147.726L121.099 146.899C121.696 146.53 122.19 146.014 122.533 145.401C122.876 144.788 123.058 144.098 123.061 143.396V84.2618C123.062 83.4394 122.847 82.6312 122.436 81.9189C122.025 81.2065 121.433 80.6152 120.72 80.2046L90.7576 62.9038C90.4956 62.7525 90.1984 62.6729 89.8958 62.6728C89.5932 62.6728 89.296 62.7525 89.0339 62.9037C88.7719 63.055 88.5543 63.2725 88.403 63.5345C88.2517 63.7965 88.172 64.0938 88.1719 64.3963Z" fill="url(#paint31_linear_502_12061)"/>
<g style="mix-blend-mode:color-dodge">
<path d="M54.9646 51.0691L87.4641 69.8274V68.8254L55.6794 50.4805C55.3029 50.2623 54.8576 50.1952 54.4336 50.2927C54.0095 50.3903 53.6383 50.6452 53.395 51.006C53.6422 50.8886 53.9142 50.833 54.1876 50.844C54.461 50.8549 54.7277 50.9322 54.9646 51.0691Z" fill="url(#paint32_radial_502_12061)"/>
<path d="M120.72 80.2052L90.7576 62.9043C90.3818 62.6882 89.9381 62.6223 89.5157 62.7197C89.0932 62.8172 88.7233 63.0709 88.4802 63.4299C88.7267 63.3135 88.9979 63.2591 89.2702 63.2713C89.5426 63.2835 89.8077 63.362 90.0428 63.5L120.006 80.7938C120.719 81.2063 121.311 81.7988 121.723 82.5121C122.135 83.2253 122.352 84.0343 122.353 84.858V143.971C122.353 145.032 121.947 146.052 121.218 146.823C121.785 146.444 122.25 145.931 122.571 145.33C122.892 144.728 123.061 144.057 123.061 143.375V84.2624C123.062 83.44 122.847 82.6318 122.436 81.9194C122.025 81.2071 121.433 80.6158 120.72 80.2052Z" fill="url(#paint33_radial_502_12061)"/>
</g>
<path d="M49.9055 106.426L119.873 146.823V93.7219L49.9055 53.3252V106.426Z" fill="white"/>
<g style="mix-blend-mode:multiply">
<path d="M49.9055 108.198L118.632 147.88V98.22L49.9055 58.5381V108.198Z" fill="#E6CFC8"/>
</g>
<path d="M50.445 110.356L115.206 147.747C115.871 148.13 116.623 148.337 117.391 148.348C118.159 148.359 118.916 148.174 119.592 147.81L120.013 147.586L119.571 147.754C119.327 147.847 119.063 147.879 118.803 147.848C118.543 147.816 118.295 147.722 118.079 147.573C117.864 147.424 117.688 147.225 117.567 146.993C117.446 146.76 117.384 146.502 117.385 146.24V101.779C117.385 100.956 117.168 100.148 116.756 99.4357C116.344 98.7234 115.751 98.1324 115.038 97.7221L49.9966 60.1704C49.735 60.0194 49.4384 59.9398 49.1365 59.9395C48.8345 59.9391 48.5378 60.0181 48.2759 60.1686C48.0141 60.319 47.7963 60.5356 47.6445 60.7966C47.4927 61.0576 47.4122 61.354 47.4109 61.6559V105.101C47.4116 106.166 47.6922 107.212 48.2248 108.134C48.7573 109.057 49.523 109.823 50.445 110.356Z" fill="url(#paint34_linear_502_12061)"/>
<path style="mix-blend-mode:color-dodge" d="M119.571 147.754C119.327 147.847 119.063 147.88 118.803 147.848C118.543 147.817 118.295 147.722 118.079 147.573C117.864 147.424 117.688 147.225 117.567 146.993C117.446 146.76 117.384 146.502 117.385 146.24V101.78C117.385 100.957 117.168 100.148 116.756 99.4359C116.344 98.7236 115.751 98.1326 115.038 97.7223L49.9965 60.1706C49.6535 59.9709 49.2514 59.8974 48.8599 59.9626C48.4684 60.0279 48.112 60.2279 47.8523 60.528C48.0948 60.4225 48.3585 60.3751 48.6226 60.3897C48.8866 60.4043 49.1435 60.4805 49.3729 60.6121L114.414 98.1638C115.127 98.5746 115.719 99.1658 116.131 99.8779C116.543 100.59 116.761 101.398 116.761 102.221V146.689C116.761 147.08 116.904 147.457 117.161 147.751C117.419 148.045 117.775 148.235 118.163 148.286C118.668 148.211 119.156 148.05 119.606 147.81L120.027 147.586L119.571 147.754Z" fill="url(#paint35_radial_502_12061)"/>
<defs>
<linearGradient id="paint0_linear_502_12061" x1="5.7599" y1="158.14" x2="192.72" y2="158.14" gradientUnits="userSpaceOnUse">
<stop stop-color="#AAAAAA"/>
<stop offset="1" stop-color="#AEAEAE"/>
</linearGradient>
<linearGradient id="paint1_linear_502_12061" x1="7.84814" y1="158.139" x2="190.632" y2="158.139" gradientUnits="userSpaceOnUse">
<stop stop-color="#A8A8A8"/>
<stop offset="1" stop-color="#E3E3E3"/>
</linearGradient>
<linearGradient id="paint2_linear_502_12061" x1="134.027" y1="91.5131" x2="-1149.2" y2="512.149" gradientUnits="userSpaceOnUse">
<stop offset="0.06" stop-color="#9F79B8"/>
<stop offset="0.26" stop-color="#A17BBA"/>
<stop offset="0.37" stop-color="#A783BF"/>
<stop offset="0.45" stop-color="#B290C9"/>
<stop offset="0.51" stop-color="#C2A2D6"/>
<stop offset="0.56" stop-color="#D1B4E3"/>
<stop offset="0.66" stop-color="#B395D6"/>
<stop offset="0.75" stop-color="#9C7DCB"/>
<stop offset="0.84" stop-color="#8E6EC5"/>
<stop offset="0.92" stop-color="#8969C3"/>
</linearGradient>
<linearGradient id="paint3_linear_502_12061" x1="132.576" y1="91.5086" x2="-1150.64" y2="512.141" gradientUnits="userSpaceOnUse">
<stop stop-color="#ADADAD"/>
<stop offset="1" stop-color="#23A8FA"/>
</linearGradient>
<linearGradient id="paint4_linear_502_12061" x1="219.613" y1="67.8022" x2="71.3615" y2="111.408" gradientUnits="userSpaceOnUse">
<stop stop-color="#4916A1"/>
<stop offset="0.52" stop-color="#5F27BD"/>
<stop offset="1" stop-color="#B4299A"/>
</linearGradient>
<linearGradient id="paint5_linear_502_12061" x1="198.844" y1="49.4506" x2="92.7827" y2="135.317" gradientUnits="userSpaceOnUse">
<stop stop-color="#4421A4"/>
<stop offset="0.04" stop-color="#4622A5"/>
<stop offset="0.33" stop-color="#512CB4"/>
<stop offset="0.52" stop-color="#5934C0"/>
<stop offset="1" stop-color="#A73CA3"/>
</linearGradient>
<linearGradient id="paint6_linear_502_12061" x1="173.457" y1="47.0822" x2="122.683" y2="140.965" gradientUnits="userSpaceOnUse">
<stop stop-color="#3F2BA6"/>
<stop offset="0.04" stop-color="#412CA8"/>
<stop offset="0.34" stop-color="#4C39B7"/>
<stop offset="0.52" stop-color="#5342C2"/>
<stop offset="1" stop-color="#9B4EAC"/>
</linearGradient>
<linearGradient id="paint7_linear_502_12061" x1="158.216" y1="20.7482" x2="142.058" y2="179.665" gradientUnits="userSpaceOnUse">
<stop stop-color="#3A36A9"/>
<stop offset="0.04" stop-color="#3C37AA"/>
<stop offset="0.33" stop-color="#4645B9"/>
<stop offset="0.52" stop-color="#4D4FC5"/>
<stop offset="1" stop-color="#8E61B6"/>
</linearGradient>
<linearGradient id="paint8_linear_502_12061" x1="128.779" y1="13.0822" x2="183.827" y2="195.452" gradientUnits="userSpaceOnUse">
<stop stop-color="#3541AB"/>
<stop offset="0.04" stop-color="#3741AC"/>
<stop offset="0.33" stop-color="#4050BB"/>
<stop offset="0.52" stop-color="#475CC8"/>
<stop offset="1" stop-color="#8274BF"/>
</linearGradient>
<linearGradient id="paint9_linear_502_12061" x1="102.27" y1="28.2465" x2="225.478" y2="178.243" gradientUnits="userSpaceOnUse">
<stop stop-color="#304BAE"/>
<stop offset="0.04" stop-color="#324CAF"/>
<stop offset="0.32" stop-color="#3A5BBD"/>
<stop offset="0.52" stop-color="#4169CA"/>
<stop offset="1" stop-color="#7586C8"/>
</linearGradient>
<linearGradient id="paint10_linear_502_12061" x1="93.4064" y1="57.2842" x2="243.361" y2="137.019" gradientUnits="userSpaceOnUse">
<stop stop-color="#2C56B0"/>
<stop offset="0.04" stop-color="#2C56B1"/>
<stop offset="0.29" stop-color="#3365BE"/>
<stop offset="0.52" stop-color="#3B77CD"/>
<stop offset="1" stop-color="#6999D1"/>
</linearGradient>
<linearGradient id="paint11_linear_502_12061" x1="93.1189" y1="82.6988" x2="248.616" y2="97.3859" gradientUnits="userSpaceOnUse">
<stop stop-color="#2760B3"/>
<stop offset="0.04" stop-color="#2761B4"/>
<stop offset="0.28" stop-color="#2D70C0"/>
<stop offset="0.52" stop-color="#3584CF"/>
<stop offset="1" stop-color="#5CABDA"/>
</linearGradient>
<linearGradient id="paint12_linear_502_12061" x1="96.1602" y1="105.424" x2="248.322" y2="58.3075" gradientUnits="userSpaceOnUse">
<stop stop-color="#226BB5"/>
<stop offset="0.04" stop-color="#226BB6"/>
<stop offset="0.26" stop-color="#277AC1"/>
<stop offset="0.52" stop-color="#2F91D2"/>
<stop offset="1" stop-color="#50BEE3"/>
</linearGradient>
<linearGradient id="paint13_linear_502_12061" x1="113.692" y1="119.922" x2="221.19" y2="30.3348" gradientUnits="userSpaceOnUse">
<stop stop-color="#1D76B8"/>
<stop offset="0.04" stop-color="#1D76B8"/>
<stop offset="0.25" stop-color="#2285C3"/>
<stop offset="0.52" stop-color="#299ED5"/>
<stop offset="1" stop-color="#43D1ED"/>
</linearGradient>
<linearGradient id="paint14_linear_502_12061" x1="133.838" y1="122.472" x2="186.021" y2="22.6262" gradientUnits="userSpaceOnUse">
<stop stop-color="#1880BA"/>
<stop offset="0.04" stop-color="#1880BB"/>
<stop offset="0.23" stop-color="#1C8FC5"/>
<stop offset="0.52" stop-color="#23ACD7"/>
<stop offset="1" stop-color="#37E3F6"/>
</linearGradient>
<linearGradient id="paint15_linear_502_12061" x1="146.928" y1="143.242" x2="161.411" y2="-22.5981" gradientUnits="userSpaceOnUse">
<stop offset="0.04" stop-color="#D9D9D9"/>
<stop offset="0.23" stop-color="#E0E0E0"/>
<stop offset="0.59" stop-color="#F0F0F0"/>
<stop offset="1" stop-color="#C9C9C9"/>
</linearGradient>
<linearGradient id="paint16_linear_502_12061" x1="98.1123" y1="180.203" x2="100.644" y2="118.101" gradientUnits="userSpaceOnUse">
<stop stop-color="#8E8E8E"/>
<stop offset="1" stop-color="#003352"/>
</linearGradient>
<linearGradient id="paint17_linear_502_12061" x1="169.267" y1="41.1462" x2="129.676" y2="138.547" gradientUnits="userSpaceOnUse">
<stop stop-color="white"/>
<stop offset="1" stop-color="#B4299A"/>
</linearGradient>
<linearGradient id="paint18_linear_502_12061" x1="180.52" y1="77.7878" x2="228.4" y2="68.4401" gradientUnits="userSpaceOnUse">
<stop stop-color="#25054D"/>
<stop offset="1" stop-color="#45108A"/>
</linearGradient>
<linearGradient id="paint19_linear_502_12061" x1="129.627" y1="48.1747" x2="151.545" y2="-12.1926" gradientUnits="userSpaceOnUse">
<stop offset="0.01" stop-color="#5B15A3"/>
<stop offset="0.28" stop-color="#4E51BB"/>
<stop offset="0.93" stop-color="#2EE5F8"/>
<stop offset="1" stop-color="#2AF6FF"/>
</linearGradient>
<linearGradient id="paint20_linear_502_12061" x1="239.542" y1="111.233" x2="17.8124" y2="61.5235" gradientUnits="userSpaceOnUse">
<stop stop-color="#3D065F"/>
<stop offset="1" stop-color="#5F27BD"/>
</linearGradient>
<linearGradient id="paint21_linear_502_12061" x1="145.855" y1="159.932" x2="100.988" y2="-65.8336" gradientUnits="userSpaceOnUse">
<stop stop-color="#F0F0F0"/>
<stop offset="1" stop-color="#A8A8A8"/>
</linearGradient>
<linearGradient id="paint22_linear_502_12061" x1="188.242" y1="79.3085" x2="77.0585" y2="-0.987351" gradientUnits="userSpaceOnUse">
<stop offset="0.03" stop-color="#7C1DC9"/>
<stop offset="0.28" stop-color="#6E41D2"/>
<stop offset="0.83" stop-color="#4C9CE9"/>
<stop offset="1" stop-color="#41B9F0"/>
</linearGradient>
<linearGradient id="paint23_linear_502_12061" x1="133.453" y1="67.5493" x2="134.693" y2="50.8931" gradientUnits="userSpaceOnUse">
<stop stop-color="#7C1DC9"/>
<stop offset="0.04" stop-color="#8024CA"/>
<stop offset="0.37" stop-color="#A362D5"/>
<stop offset="0.65" stop-color="#BC8EDD"/>
<stop offset="0.87" stop-color="#CBAAE1"/>
<stop offset="1" stop-color="#D1B4E3"/>
</linearGradient>
<linearGradient id="paint24_linear_502_12061" x1="133.453" y1="121.331" x2="134.693" y2="104.675" gradientUnits="userSpaceOnUse">
<stop stop-color="#7C1DC9"/>
<stop offset="0.04" stop-color="#8024CA"/>
<stop offset="0.37" stop-color="#A362D5"/>
<stop offset="0.65" stop-color="#BC8EDD"/>
<stop offset="0.87" stop-color="#CBAAE1"/>
<stop offset="1" stop-color="#D1B4E3"/>
</linearGradient>
<linearGradient id="paint25_linear_502_12061" x1="133.453" y1="103.287" x2="134.693" y2="86.6306" gradientUnits="userSpaceOnUse">
<stop stop-color="#7C1DC9"/>
<stop offset="0.04" stop-color="#8024CA"/>
<stop offset="0.37" stop-color="#A362D5"/>
<stop offset="0.65" stop-color="#BC8EDD"/>
<stop offset="0.87" stop-color="#CBAAE1"/>
<stop offset="1" stop-color="#D1B4E3"/>
</linearGradient>
<linearGradient id="paint26_linear_502_12061" x1="133.453" y1="85.5932" x2="134.693" y2="68.9371" gradientUnits="userSpaceOnUse">
<stop stop-color="#7C1DC9"/>
<stop offset="0.04" stop-color="#8024CA"/>
<stop offset="0.37" stop-color="#A362D5"/>
<stop offset="0.65" stop-color="#BC8EDD"/>
<stop offset="0.87" stop-color="#CBAAE1"/>
<stop offset="1" stop-color="#D1B4E3"/>
</linearGradient>
<linearGradient id="paint27_linear_502_12061" x1="197.562" y1="101.864" x2="219.368" y2="95.3332" gradientUnits="userSpaceOnUse">
<stop offset="0.04" stop-color="#9F19AB"/>
<stop offset="0.24" stop-color="#AE25B1"/>
<stop offset="0.65" stop-color="#D744BF"/>
<stop offset="1" stop-color="#FF63CE"/>
</linearGradient>
<linearGradient id="paint28_linear_502_12061" x1="44.7621" y1="104.695" x2="276.022" y2="52.8558" gradientUnits="userSpaceOnUse">
<stop offset="0.04" stop-color="#9F19AB"/>
<stop offset="0.24" stop-color="#AE25B1"/>
<stop offset="0.65" stop-color="#D744BF"/>
<stop offset="1" stop-color="#FF63CE"/>
</linearGradient>
<linearGradient id="paint29_linear_502_12061" x1="169.596" y1="51.0335" x2="159.407" y2="70.4435" gradientUnits="userSpaceOnUse">
<stop offset="0.04" stop-color="#6D6D6D"/>
<stop offset="0.24" stop-color="#AE25B1"/>
<stop offset="0.65" stop-color="#D744BF"/>
<stop offset="1" stop-color="#FF63CE"/>
</linearGradient>
<linearGradient id="paint30_linear_502_12061" x1="130.061" y1="62.1262" x2="84.0658" y2="127.798" gradientUnits="userSpaceOnUse">
<stop stop-color="white"/>
<stop offset="0.27" stop-color="#F4EEF4"/>
<stop offset="0.79" stop-color="#D8C4D7"/>
<stop offset="1" stop-color="#CCB1CB"/>
</linearGradient>
<linearGradient id="paint31_linear_502_12061" x1="88.0178" y1="98.5075" x2="94.8358" y2="6.85299" gradientUnits="userSpaceOnUse">
<stop offset="0.04" stop-color="#FFA98C"/>
<stop offset="0.32" stop-color="#FFB892"/>
<stop offset="0.86" stop-color="#FEE1A3"/>
<stop offset="1" stop-color="#FEECA8"/>
</linearGradient>
<radialGradient id="paint32_radial_502_12061" cx="0" cy="0" r="1" gradientUnits="userSpaceOnUse" gradientTransform="translate(70.4296 60.0384) scale(13.8953 13.8953)">
<stop stop-color="white"/>
<stop offset="1"/>
</radialGradient>
<radialGradient id="paint33_radial_502_12061" cx="0" cy="0" r="1" gradientUnits="userSpaceOnUse" gradientTransform="translate(98.6617 90.2956) scale(25.0438 25.0438)">
<stop stop-color="white"/>
<stop offset="1"/>
</radialGradient>
<linearGradient id="paint34_linear_502_12061" x1="50.9636" y1="232.716" x2="100.694" y2="38.0416" gradientUnits="userSpaceOnUse">
<stop offset="0.04" stop-color="#FFA98C"/>
<stop offset="0.32" stop-color="#FFB892"/>
<stop offset="0.86" stop-color="#FEE1A3"/>
<stop offset="1" stop-color="#FEECA8"/>
</linearGradient>
<radialGradient id="paint35_radial_502_12061" cx="0" cy="0" r="1" gradientUnits="userSpaceOnUse" gradientTransform="translate(74.1014 104.351) scale(40.3336 40.3336)">
<stop stop-color="white"/>
<stop offset="1"/>
</radialGradient>
</defs>
</svg>
