<svg width="226" height="74" viewBox="0 0 226 74" fill="none" xmlns="http://www.w3.org/2000/svg">
<g filter="url(#filter0_d_333_131)">
<rect x="13" y="9" width="200" height="47.185" rx="12.8686" fill="white" shape-rendering="crispEdges"/>
<circle cx="35.5201" cy="32.5923" r="12.3686" fill="white" stroke="#23A8FA"/>
<path d="M34.3828 30.1897C35.0107 29.6401 36.0295 29.6401 36.6574 30.1897C37.2858 30.7393 37.2858 31.6304 36.6574 32.18C36.5485 32.276 36.4268 32.3548 36.2981 32.417C35.8987 32.6106 35.5207 32.9527 35.5207 33.3966V33.7988M40.3459 32.5923C40.3459 33.2261 40.221 33.8536 39.9785 34.4391C39.736 35.0246 39.3805 35.5565 38.9324 36.0047C38.4843 36.4528 37.9523 36.8082 37.3668 37.0507C36.7814 37.2933 36.1538 37.4181 35.5201 37.4181C34.8864 37.4181 34.2589 37.2933 33.6734 37.0507C33.0879 36.8082 32.5559 36.4528 32.1078 36.0047C31.6597 35.5565 31.3042 35.0246 31.0617 34.4391C30.8192 33.8536 30.6944 33.2261 30.6944 32.5923C30.6944 31.3125 31.2028 30.085 32.1078 29.18C33.0128 28.275 34.2402 27.7666 35.5201 27.7666C36.8 27.7666 38.0274 28.275 38.9324 29.18C39.8374 30.085 40.3459 31.3125 40.3459 32.5923ZM35.5201 35.4074H35.5244V35.4116H35.5201V35.4074Z" stroke="#23A8FA" stroke-width="0.80429" stroke-linecap="round" stroke-linejoin="round"/>
<path d="M55.1576 23.8559V23.058H59.3185V23.8559H57.7314V29.0205H56.7534V23.8559H55.1576ZM61.287 26.5326V29.0205H60.309V24.2934H61.287V24.9798C61.5615 24.5079 62.0334 24.2162 62.7025 24.2162V25.2286H62.4538C61.7331 25.2286 61.287 25.5288 61.287 26.5326ZM68.1056 26.6527C68.1056 28.1369 67.0074 29.0977 65.6519 29.0977C64.305 29.0977 63.2841 28.1369 63.2841 26.6527C63.2841 25.1685 64.3479 24.2162 65.6948 24.2162C67.0418 24.2162 68.1056 25.1685 68.1056 26.6527ZM64.2793 26.6527C64.2793 27.7251 64.9141 28.2484 65.6519 28.2484C66.3812 28.2484 67.1018 27.7251 67.1018 26.6527C67.1018 25.5803 66.4069 25.0655 65.6777 25.0655C64.9399 25.0655 64.2793 25.5803 64.2793 26.6527ZM73.3533 24.2934V29.0205H72.3753V28.4543C72.0665 28.8575 71.5346 29.0891 70.9769 29.0891C69.8702 29.0891 69.0295 28.3942 69.0295 27.0731V24.2934H69.9989V26.9272C69.9989 27.7937 70.4708 28.2398 71.1828 28.2398C71.9035 28.2398 72.3753 27.7937 72.3753 26.9272V24.2934H73.3533ZM75.6218 24.9969C75.9306 24.568 76.5226 24.2162 77.269 24.2162C78.5215 24.2162 79.491 25.1771 79.491 26.6355C79.491 28.094 78.5129 29.0977 77.269 29.0977C76.4883 29.0977 75.9306 28.746 75.6218 28.3342V29.0205H74.6438V22.672H75.6218V24.9969ZM78.4958 26.6355C78.4958 25.6146 77.7923 25.0655 77.0545 25.0655C76.3253 25.0655 75.6218 25.6403 75.6218 26.6527C75.6218 27.6736 76.3253 28.2484 77.0545 28.2484C77.7923 28.2484 78.4958 27.6564 78.4958 26.6355ZM80.4581 29.0205V22.672H81.4361V29.0205H80.4581ZM84.7105 25.0398C84.0499 25.0398 83.518 25.4859 83.4151 26.2323H86.0317C86.0145 25.5031 85.4397 25.0398 84.7105 25.0398ZM86.9239 27.6135C86.658 28.4371 85.9116 29.0977 84.7534 29.0977C83.3979 29.0977 82.3942 28.1369 82.3942 26.6527C82.3942 25.1685 83.355 24.2162 84.7534 24.2162C86.1003 24.2162 87.0526 25.1513 87.0526 26.5412C87.0526 26.7042 87.044 26.8586 87.0183 27.0216H83.4065C83.4751 27.8023 84.0328 28.2741 84.7534 28.2741C85.354 28.2741 85.6885 27.9824 85.8687 27.6135H86.9239ZM91.4533 29.0291L89.7632 23.058H90.8013L92.0367 27.9138L93.375 23.058H94.4731L95.7171 27.8881L96.9611 23.058H98.0077L96.2404 29.0205H95.1337L93.8812 24.5079L92.5514 29.0205L91.4533 29.0291ZM98.8143 29.0205V24.2934H99.7924V29.0205H98.8143ZM99.3119 23.6672C98.9602 23.6672 98.6857 23.3926 98.6857 23.0409C98.6857 22.6891 98.9602 22.4146 99.3119 22.4146C99.6551 22.4146 99.9296 22.6891 99.9296 23.0409C99.9296 23.3926 99.6551 23.6672 99.3119 23.6672ZM101.231 27.7079V25.0913H100.673V24.2934H101.231V23.1181H102.217V24.2934H103.367V25.0913H102.217V27.7079C102.217 28.0596 102.355 28.2055 102.766 28.2055H103.367V29.0205H102.595C101.754 29.0205 101.231 28.6688 101.231 27.7079ZM104.268 29.0205V22.672H105.246V24.8425C105.572 24.4479 106.104 24.2162 106.713 24.2162C107.769 24.2162 108.592 24.9111 108.592 26.2323V29.0205H107.623V26.3781C107.623 25.5117 107.151 25.0655 106.439 25.0655C105.718 25.0655 105.246 25.5117 105.246 26.3781V29.0205H104.268ZM113.535 26.8586L111.554 23.058H112.643L114.024 25.9835L115.406 23.058H116.487L114.513 26.8586V29.0205H113.535V26.8586ZM121.767 26.6527C121.767 28.1369 120.669 29.0977 119.313 29.0977C117.966 29.0977 116.945 28.1369 116.945 26.6527C116.945 25.1685 118.009 24.2162 119.356 24.2162C120.703 24.2162 121.767 25.1685 121.767 26.6527ZM117.94 26.6527C117.94 27.7251 118.575 28.2484 119.313 28.2484C120.042 28.2484 120.763 27.7251 120.763 26.6527C120.763 25.5803 120.068 25.0655 119.339 25.0655C118.601 25.0655 117.94 25.5803 117.94 26.6527ZM127.015 24.2934V29.0205H126.037V28.4543C125.728 28.8575 125.196 29.0891 124.638 29.0891C123.531 29.0891 122.691 28.3942 122.691 27.0731V24.2934H123.66V26.9272C123.66 27.7937 124.132 28.2398 124.844 28.2398C125.565 28.2398 126.037 27.7937 126.037 26.9272V24.2934H127.015ZM129.283 26.5326V29.0205H128.305V24.2934H129.283V24.9798C129.558 24.5079 130.029 24.2162 130.699 24.2162V25.2286H130.45C129.729 25.2286 129.283 25.5288 129.283 26.5326ZM134.804 25.8033H135.885C136.649 25.8033 136.992 25.4344 136.992 24.8339C136.992 24.2162 136.649 23.8559 135.885 23.8559H134.804V25.8033ZM137.996 24.8339C137.996 25.6832 137.438 26.6012 135.885 26.6012H134.804V29.0205H133.826V23.058H135.885C137.301 23.058 137.996 23.8645 137.996 24.8339ZM138.602 26.6355C138.602 25.1771 139.589 24.2162 140.833 24.2162C141.631 24.2162 142.18 24.5937 142.471 24.9798V24.2934H143.458V29.0205H142.471V28.317C142.171 28.7202 141.605 29.0977 140.816 29.0977C139.589 29.0977 138.602 28.094 138.602 26.6355ZM142.471 26.6527C142.471 25.6403 141.777 25.0655 141.039 25.0655C140.31 25.0655 139.606 25.6146 139.606 26.6355C139.606 27.6564 140.31 28.2484 141.039 28.2484C141.777 28.2484 142.471 27.6736 142.471 26.6527ZM146.604 27.8966L147.986 24.2934H148.998L146.098 31.2425H145.086L146.047 28.9433L144.185 24.2934H145.275L146.604 27.8966ZM156.436 29.0205V26.3781C156.436 25.5117 155.964 25.0655 155.252 25.0655C154.532 25.0655 154.06 25.5117 154.06 26.3781V29.0205H153.09V26.3781C153.09 25.5117 152.618 25.0655 151.906 25.0655C151.186 25.0655 150.714 25.5117 150.714 26.3781V29.0205H149.736V24.2934H150.714V24.8339C151.031 24.4479 151.546 24.2162 152.112 24.2162C152.859 24.2162 153.485 24.5336 153.811 25.1513C154.103 24.5765 154.772 24.2162 155.458 24.2162C156.565 24.2162 157.406 24.9111 157.406 26.2323V29.0205H156.436ZM160.64 25.0398C159.98 25.0398 159.448 25.4859 159.345 26.2323H161.962C161.944 25.5031 161.37 25.0398 160.64 25.0398ZM162.854 27.6135C162.588 28.4371 161.842 29.0977 160.683 29.0977C159.328 29.0977 158.324 28.1369 158.324 26.6527C158.324 25.1685 159.285 24.2162 160.683 24.2162C162.03 24.2162 162.983 25.1513 162.983 26.5412C162.983 26.7042 162.974 26.8586 162.948 27.0216H159.336C159.405 27.8023 159.963 28.2741 160.683 28.2741C161.284 28.2741 161.618 27.9824 161.799 27.6135H162.854ZM167.299 29.0205V26.3781C167.299 25.5117 166.828 25.0655 166.116 25.0655C165.395 25.0655 164.923 25.5117 164.923 26.3781V29.0205H163.945V24.2934H164.923V24.8339C165.24 24.4479 165.764 24.2162 166.33 24.2162C167.437 24.2162 168.269 24.9111 168.269 26.2323V29.0205H167.299ZM169.671 27.7079V25.0913H169.113V24.2934H169.671V23.1181H170.657V24.2934H171.807V25.0913H170.657V27.7079C170.657 28.0596 170.795 28.2055 171.206 28.2055H171.807V29.0205H171.035C170.194 29.0205 169.671 28.6688 169.671 27.7079ZM172.408 24.7395C172.4 23.7015 173.146 22.9723 174.313 22.9723C175.462 22.9723 176.243 23.65 176.243 24.7653C176.243 25.9749 175.385 26.5068 174.236 26.5068L174.201 27.1846H173.352L173.309 25.8377H173.592C174.562 25.8377 175.308 25.6661 175.308 24.7653C175.308 24.1647 174.939 23.7958 174.321 23.7958C173.712 23.7958 173.326 24.139 173.326 24.7395H172.408ZM174.381 28.4543C174.381 28.806 174.107 29.0806 173.764 29.0806C173.412 29.0806 173.137 28.806 173.137 28.4543C173.137 28.1025 173.412 27.828 173.764 27.828C174.107 27.828 174.381 28.1025 174.381 28.4543Z" fill="#121212"/>
<path d="M55.3598 37.3066H55.9941V41.6492H57.6949V42.165H55.3598V37.3066ZM59.9927 38.8192C59.3723 38.8192 58.8565 39.2305 58.7868 39.9763H61.1986C61.2055 39.2305 60.6479 38.8192 59.9927 38.8192ZM61.7771 40.987C61.5819 41.6841 60.9685 42.2278 60.0206 42.2278C58.9332 42.2278 58.1315 41.461 58.1315 40.2481C58.1315 39.0423 58.9053 38.2825 60.0206 38.2825C61.1289 38.2825 61.8538 39.0632 61.8538 40.1087C61.8538 40.2481 61.8468 40.3597 61.8329 40.4921H58.7798C58.8286 41.2658 59.3723 41.691 60.0206 41.691C60.5921 41.691 60.9546 41.3983 61.094 40.987H61.7771ZM62.8305 41.1195V38.868H62.3356V38.3452H62.8305V37.3833H63.4648V38.3452H64.4616V38.868H63.4648V41.1195C63.4648 41.4959 63.6042 41.6283 63.9946 41.6283H64.4616V42.165H63.89C63.2139 42.165 62.8305 41.8862 62.8305 41.1195ZM70.4762 38.3452V42.165H69.8418V41.6004C69.5979 41.9977 69.1308 42.2208 68.622 42.2208C67.7437 42.2208 67.0536 41.6771 67.0536 40.5827V38.3452H67.681V40.4991C67.681 41.2728 68.1062 41.6701 68.7475 41.6701C69.4027 41.6701 69.8418 41.2658 69.8418 40.4433V38.3452H70.4762ZM74.2935 41.1264C74.2935 41.7538 73.7429 42.2278 72.8994 42.2278C72.0072 42.2278 71.3799 41.7398 71.338 41.0428H71.9933C72.0281 41.4122 72.3557 41.691 72.8925 41.691C73.3943 41.691 73.6732 41.4401 73.6732 41.1264C73.6732 40.276 71.4147 40.7709 71.4147 39.349C71.4147 38.7634 71.9654 38.2825 72.8158 38.2825C73.6592 38.2825 74.2169 38.7355 74.2587 39.4814H73.6244C73.5965 39.098 73.3037 38.8192 72.7949 38.8192C72.3279 38.8192 72.049 39.0423 72.049 39.349C72.049 40.2551 74.2657 39.7602 74.2935 41.1264ZM77.0473 42.165V37.0069H77.6816V40.039L79.1524 38.3452H80.0377L78.2393 40.2481L80.0446 42.165H79.1803L77.6816 40.4782V42.165H77.0473ZM83.4299 42.165V40.0042C83.4299 39.2235 83.0047 38.8262 82.3634 38.8262C81.7151 38.8262 81.269 39.2305 81.269 40.053V42.165H80.6347V38.3452H81.269V38.8889C81.5199 38.4916 81.98 38.2755 82.4958 38.2755C83.3811 38.2755 84.0572 38.8192 84.0572 39.9136V42.165H83.4299ZM88.718 40.2481C88.718 41.461 87.8467 42.2278 86.7593 42.2278C85.6789 42.2278 84.8564 41.461 84.8564 40.2481C84.8564 39.0423 85.7068 38.2825 86.7872 38.2825C87.8746 38.2825 88.718 39.0423 88.718 40.2481ZM85.5046 40.2481C85.5046 41.217 86.0971 41.6701 86.7593 41.6701C87.4215 41.6701 88.0698 41.217 88.0698 40.2481C88.0698 39.2862 87.4355 38.8331 86.7802 38.8331C86.1111 38.8331 85.5046 39.2862 85.5046 40.2481ZM90.2979 42.165L89.099 38.3452H89.7472L90.6255 41.5516L91.5735 38.3452H92.2217L93.1488 41.5586L94.0132 38.3452H94.6405L93.4486 42.165H92.7933L91.8732 39.1329L90.9531 42.165H90.2979ZM100.753 40.2481C100.753 41.461 99.8817 42.2278 98.7943 42.2278C97.7139 42.2278 96.8914 41.461 96.8914 40.2481C96.8914 39.0423 97.7418 38.2825 98.8222 38.2825C99.9096 38.2825 100.753 39.0423 100.753 40.2481ZM97.5396 40.2481C97.5396 41.217 98.1321 41.6701 98.7943 41.6701C99.4565 41.6701 100.105 41.217 100.105 40.2481C100.105 39.2862 99.4705 38.8331 98.8152 38.8331C98.1461 38.8331 97.5396 39.2862 97.5396 40.2481ZM104.382 42.165V40.0042C104.382 39.2235 103.957 38.8262 103.316 38.8262C102.667 38.8262 102.221 39.2305 102.221 40.053V42.165H101.587V38.3452H102.221V38.8889C102.472 38.4916 102.932 38.2755 103.448 38.2755C104.333 38.2755 105.01 38.8192 105.01 39.9136V42.165H104.382ZM107.904 42.165V37.0069H108.538V38.8959C108.789 38.4916 109.263 38.2755 109.8 38.2755C110.65 38.2755 111.327 38.8192 111.327 39.9136V42.165H110.699V40.0042C110.699 39.2235 110.274 38.8262 109.633 38.8262C108.985 38.8262 108.538 39.2305 108.538 40.053V42.165H107.904ZM113.987 38.8192C113.367 38.8192 112.851 39.2305 112.781 39.9763H115.193C115.2 39.2305 114.642 38.8192 113.987 38.8192ZM115.771 40.987C115.576 41.6841 114.963 42.2278 114.015 42.2278C112.927 42.2278 112.126 41.461 112.126 40.2481C112.126 39.0423 112.899 38.2825 114.015 38.2825C115.123 38.2825 115.848 39.0632 115.848 40.1087C115.848 40.2481 115.841 40.3597 115.827 40.4921H112.774C112.823 41.2658 113.367 41.691 114.015 41.691C114.586 41.691 114.949 41.3983 115.088 40.987H115.771ZM116.685 42.165V37.0069H117.32V42.165H116.685ZM119.035 39.0492C119.265 38.6449 119.767 38.2825 120.464 38.2825C121.489 38.2825 122.276 39.0492 122.276 40.2412C122.276 41.4262 121.489 42.2278 120.464 42.2278C119.767 42.2278 119.272 41.8514 119.035 41.461V43.9774H118.401V38.3452H119.035V39.0492ZM121.628 40.2412C121.628 39.342 121.036 38.8331 120.332 38.8331C119.641 38.8331 119.035 39.3629 119.035 40.2481C119.035 41.1473 119.641 41.6701 120.332 41.6701C121.036 41.6701 121.628 41.1404 121.628 40.2412ZM124.733 40.2481C124.733 39.0492 125.506 38.2825 126.594 38.2825C127.542 38.2825 128.162 38.7704 128.357 39.572H127.674C127.542 39.112 127.158 38.8192 126.594 38.8192C125.897 38.8192 125.381 39.3141 125.381 40.2481C125.381 41.1961 125.897 41.691 126.594 41.691C127.158 41.691 127.535 41.4192 127.674 40.9382H128.357C128.162 41.698 127.542 42.2278 126.594 42.2278C125.506 42.2278 124.733 41.461 124.733 40.2481ZM130.828 38.8192C130.207 38.8192 129.692 39.2305 129.622 39.9763H132.034C132.041 39.2305 131.483 38.8192 130.828 38.8192ZM132.612 40.987C132.417 41.6841 131.804 42.2278 130.856 42.2278C129.768 42.2278 128.967 41.461 128.967 40.2481C128.967 39.0423 129.74 38.2825 130.856 38.2825C131.964 38.2825 132.689 39.0632 132.689 40.1087C132.689 40.2481 132.682 40.3597 132.668 40.4921H129.615C129.664 41.2658 130.207 41.691 130.856 41.691C131.427 41.691 131.79 41.3983 131.929 40.987H132.612ZM136.321 42.165V40.0042C136.321 39.2235 135.896 38.8262 135.255 38.8262C134.607 38.8262 134.16 39.2305 134.16 40.053V42.165H133.526V38.3452H134.16V38.8889C134.411 38.4916 134.871 38.2755 135.387 38.2755C136.273 38.2755 136.949 38.8192 136.949 39.9136V42.165H136.321ZM138.124 41.1195V38.868H137.629V38.3452H138.124V37.3833H138.759V38.3452H139.755V38.868H138.759V41.1195C138.759 41.4959 138.898 41.6283 139.288 41.6283H139.755V42.165H139.184C138.508 42.165 138.124 41.8862 138.124 41.1195ZM142.148 38.8192C141.528 38.8192 141.012 39.2305 140.942 39.9763H143.354C143.361 39.2305 142.803 38.8192 142.148 38.8192ZM143.932 40.987C143.737 41.6841 143.124 42.2278 142.176 42.2278C141.088 42.2278 140.287 41.461 140.287 40.2481C140.287 39.0423 141.061 38.2825 142.176 38.2825C143.284 38.2825 144.009 39.0632 144.009 40.1087C144.009 40.2481 144.002 40.3597 143.988 40.4921H140.935C140.984 41.2658 141.528 41.691 142.176 41.691C142.747 41.691 143.11 41.3983 143.249 40.987H143.932ZM145.481 40.0878V42.165H144.846V38.3452H145.481V38.9656C145.697 38.5404 146.108 38.2755 146.715 38.2755V38.9307H146.547C145.941 38.9307 145.481 39.2026 145.481 40.0878ZM152.1 42.165V40.0042C152.1 39.2235 151.675 38.8262 151.034 38.8262C150.386 38.8262 149.939 39.2305 149.939 40.053V42.165H149.305V38.3452H149.939V38.8889C150.19 38.4916 150.65 38.2755 151.166 38.2755C152.051 38.2755 152.728 38.8192 152.728 39.9136V42.165H152.1ZM157.388 40.2481C157.388 41.461 156.517 42.2278 155.43 42.2278C154.349 42.2278 153.527 41.461 153.527 40.2481C153.527 39.0423 154.377 38.2825 155.458 38.2825C156.545 38.2825 157.388 39.0423 157.388 40.2481ZM154.175 40.2481C154.175 41.217 154.768 41.6701 155.43 41.6701C156.092 41.6701 156.74 41.217 156.74 40.2481C156.74 39.2862 156.106 38.8331 155.451 38.8331C154.781 38.8331 154.175 39.2862 154.175 40.2481ZM158.968 42.165L157.769 38.3452H158.418L159.296 41.5516L160.244 38.3452H160.892L161.819 41.5586L162.684 38.3452H163.311L162.119 42.165H161.464L160.544 39.1329L159.624 42.165H158.968ZM164.157 40.7918L164.08 37.3066H164.763L164.686 40.7918H164.157ZM164.868 41.7747C164.868 42.0187 164.679 42.2069 164.449 42.2069C164.205 42.2069 164.017 42.0187 164.017 41.7747C164.017 41.5307 164.205 41.3425 164.449 41.3425C164.679 41.3425 164.868 41.5307 164.868 41.7747Z" fill="#3D3D3D"/>
<path d="M196.311 29.2412L199.662 32.5924L196.311 35.9436" stroke="#23A8FA" stroke-width="0.670241" stroke-linecap="round" stroke-linejoin="round"/>
</g>
<defs>
<filter id="filter0_d_333_131" x="0.131368" y="0.420912" width="225.737" height="72.9218" filterUnits="userSpaceOnUse" color-interpolation-filters="sRGB">
<feFlood flood-opacity="0" result="BackgroundImageFix"/>
<feColorMatrix in="SourceAlpha" type="matrix" values="0 0 0 0 0 0 0 0 0 0 0 0 0 0 0 0 0 0 127 0" result="hardAlpha"/>
<feOffset dy="4.28954"/>
<feGaussianBlur stdDeviation="6.43432"/>
<feComposite in2="hardAlpha" operator="out"/>
<feColorMatrix type="matrix" values="0 0 0 0 0.666667 0 0 0 0 0.666667 0 0 0 0 0.666667 0 0 0 0.12 0"/>
<feBlend mode="normal" in2="BackgroundImageFix" result="effect1_dropShadow_333_131"/>
<feBlend mode="normal" in="SourceGraphic" in2="effect1_dropShadow_333_131" result="shape"/>
</filter>
</defs>
</svg>
